<?xml version="1.0" encoding="UTF-8" standalone="no"?>
<!-- Created with Inkscape (http://www.inkscape.org/) -->

<svg
   xmlns:dc="http://purl.org/dc/elements/1.1/"
   xmlns:cc="http://creativecommons.org/ns#"
   xmlns:rdf="http://www.w3.org/1999/02/22-rdf-syntax-ns#"
   xmlns:svg="http://www.w3.org/2000/svg"
   xmlns="http://www.w3.org/2000/svg"
   xmlns:sodipodi="http://sodipodi.sourceforge.net/DTD/sodipodi-0.dtd"
   xmlns:inkscape="http://www.inkscape.org/namespaces/inkscape"
   width="470.96454mm"
   height="470.96454mm"
   viewBox="0 0 1668.772 1668.772"
   id="svg2"
   version="1.1"
   inkscape:version="0.91 r13725"
   sodipodi:docname="icon.svg">
  <defs
     id="defs4" />
  <sodipodi:namedview
     id="base"
     pagecolor="#ffffff"
     bordercolor="#666666"
     borderopacity="1.0"
     inkscape:pageopacity="0.0"
     inkscape:pageshadow="2"
     inkscape:zoom="0.49497475"
     inkscape:cx="-17.419873"
     inkscape:cy="694.96107"
     inkscape:document-units="px"
     inkscape:current-layer="layer1"
     showgrid="false"
     inkscape:window-width="3070"
     inkscape:window-height="1752"
     inkscape:window-x="130"
     inkscape:window-y="48"
     inkscape:window-maximized="1"
     fit-margin-top="0"
     fit-margin-left="0"
     fit-margin-right="0"
     fit-margin-bottom="0" />
  <metadata
     id="metadata7">
    <rdf:RDF>
      <cc:Work
         rdf:about="">
        <dc:format>image/svg+xml</dc:format>
        <dc:type
           rdf:resource="http://purl.org/dc/dcmitype/StillImage" />
        <dc:title></dc:title>
      </cc:Work>
    </rdf:RDF>
  </metadata>
  <g
     inkscape:label="Layer 1"
     inkscape:groupmode="layer"
     id="layer1"
     transform="translate(748.0307,256.79547)">
    <g
       id="g4386">
      <path
         style="fill:#000000;fill-opacity:1;stroke:none;stroke-width:1000;stroke-linecap:round;stroke-linejoin:round;stroke-miterlimit:4;stroke-dasharray:none;stroke-opacity:0.94117647"
         d="m -748.0307,-256.79547 1668.77197,0 0,1668.77197 -1668.77197,0 z"
         id="rect4136" />
      <g
         id="g4360">
        <path
           style="fill:#e41a24;fill-opacity:1;stroke:none;stroke-width:1000;stroke-linecap:round;stroke-linejoin:round;stroke-miterlimit:4;stroke-dasharray:none;stroke-opacity:0.94117647"
           d="m 420.74127,-256.79547 500,0 0,500 -500,0 z"
           id="rect4138" />
        <g
           transform="translate(29.843567,-124.92846)"
           style="font-style:normal;font-variant:normal;font-weight:normal;font-stretch:normal;font-size:375px;line-height:125%;font-family:'Noto Sans';-inkscape-font-specification:'Noto Sans';letter-spacing:0px;word-spacing:0px;fill:#ffffff;fill-opacity:1;stroke:none;stroke-width:1px;stroke-linecap:butt;stroke-linejoin:miter;stroke-opacity:1"
           id="flowRoot4161">
          <path
             d="m 725.58398,252.5324 -32.22656,-82.94677 -106.20117,0 -31.86035,82.94677 -34.05762,0 104.55322,-268.798824 30.39551,0 104.37012,268.798824 -34.97315,0 z M 683.28662,139.73944 653.25732,58.623713 640.43994,18.523615 q -5.49316,21.972656 -11.53564,40.100098 l -30.39551,81.115727 84.77783,0 z"
             style=""
             id="path4433" />
        </g>
      </g>
      <g
         id="g4367">
        <path
           style="fill:#f05b22;fill-opacity:1;stroke:none;stroke-width:1000;stroke-linecap:round;stroke-linejoin:round;stroke-miterlimit:4;stroke-dasharray:none;stroke-opacity:0.94117647"
           d="m 420.74127,327.59052 500,0 0,500 -500,0 z"
           id="rect4138-3" />
        <g
           transform="translate(19.498108,458.90821)"
           style="font-style:normal;font-variant:normal;font-weight:normal;font-stretch:normal;font-size:375px;line-height:125%;font-family:'Noto Sans';-inkscape-font-specification:'Noto Sans';letter-spacing:0px;word-spacing:0px;fill:#ffffff;fill-opacity:1;stroke:none;stroke-width:1px;stroke-linecap:butt;stroke-linejoin:miter;stroke-opacity:1"
           id="flowRoot4161-7">
          <path
             d="m 557.67627,-15.167791 76.35498,0 q 53.83301,0 77.63672,16.11328102 23.98682,15.93017598 23.98682,50.17089798 0,23.803711 -13.00049,39.367676 -13.00049,15.380856 -37.90284,19.958496 l 0,1.83106 q 30.94483,5.31005 45.41016,21.42333 14.64844,16.11329 14.64844,42.66358 0,35.88867 -24.53613,56.03027 -24.53614,20.1416 -68.48145,20.1416 l -94.11621,0 0,-267.700191 z m 33.69141,113.891601 49.43847,0 q 31.49414,0 45.77637,-10.0708 14.28223,-10.070801 14.28223,-33.691407 0,-21.972656 -15.74707,-31.677246 -15.56397,-9.70459 -49.43848,-9.70459 l -44.31152,0 0,85.144043 z m 0,28.19824 0,97.0459 54.01611,0 q 32.22656,0 47.79053,-12.45117 15.56396,-12.45117 15.56396,-37.71973 0,-23.98681 -16.47949,-35.33935 -16.47949,-11.53565 -49.43848,-11.53565 l -51.45263,0 z"
             style=""
             id="path4437" />
        </g>
      </g>
      <g
         id="g4374">
        <path
           style="fill:#00a84f;fill-opacity:1;stroke:none;stroke-width:1000;stroke-linecap:round;stroke-linejoin:round;stroke-miterlimit:4;stroke-dasharray:none;stroke-opacity:0.94117647"
           d="m 420.74127,911.9765 500,0 0,500 -500,0 z"
           id="rect4138-6" />
        <g
           transform="translate(25.357483,1043.3857)"
           style="font-style:normal;font-variant:normal;font-weight:normal;font-stretch:normal;font-size:375px;line-height:125%;font-family:'Noto Sans';-inkscape-font-specification:'Noto Sans';letter-spacing:0px;word-spacing:0px;fill:#ffffff;fill-opacity:1;stroke:none;stroke-width:1px;stroke-linecap:butt;stroke-linejoin:miter;stroke-opacity:1"
           id="flowRoot4161-6">
          <path
             d="m 672.30029,10.65008 q -43.21289,0 -67.93213,28.930664 -24.71923,28.930664 -24.71923,79.101566 0,51.81884 23.98681,80.01709 23.98682,28.01513 68.29834,28.01513 28.56446,0 64.27002,-10.62011 l 0,29.29687 q -17.02881,6.22559 -32.77588,8.42285 -15.74707,2.38037 -36.25488,2.38037 -59.14307,0 -91.18652,-35.88867 -31.86036,-36.07178 -31.86036,-101.98974 0,-41.38184 15.19776,-72.50977 15.38086,-31.12793 44.49463,-47.9736329 29.29687,-16.8457031 68.84765,-16.8457031 42.48047,0 73.97461,15.7470702 L 733.09131,25.298517 Q 701.04785,10.65008 672.30029,10.65008 Z"
             style=""
             id="path4441" />
        </g>
      </g>
      <g
         id="g4381">
        <path
           style="fill:#00aeee;fill-opacity:1;stroke:none;stroke-width:1000;stroke-linecap:round;stroke-linejoin:round;stroke-miterlimit:4;stroke-dasharray:none;stroke-opacity:0.94117647"
           d="m -748.0307,-256.79547 1084.38599,0 0,1668.77197 -1084.38599,0 z"
           id="rect4173" />
        <g
           id="g4312"
           transform="matrix(0.75055417,0,0,0.75055417,-581.11479,202.31343)"
           style="fill:#fff9ae;fill-opacity:1;stroke:#000000;stroke-width:53.29395294;stroke-miterlimit:4;stroke-dasharray:none;stroke-opacity:1">
          <path
             id="path4314"
             d="M 500,54.5 C 229.4,54.5 10,234 10,455.4 10,564 63,662.4 148.7,734.5 l -49.6,211 263.4,-105.3 c 43.7,10.4 89.7,16.2 137.5,16.2 270.6,0 490,-179.5 490,-400.9 0,-221.4 -219.4,-401 -490,-401"
             inkscape:connector-curvature="0"
             style="fill:#fff9ae;fill-opacity:1;stroke:#000000;stroke-width:53.29395294;stroke-miterlimit:4;stroke-dasharray:none;stroke-opacity:1"
             sodipodi:nodetypes="cscccssc" />
        </g>
      </g>
    </g>
  </g>
</svg>
