<?xml version="1.0"?>
<svg xmlns="http://www.w3.org/2000/svg" width="140" height="25" viewBox="0 0 140 25" fill="none">
<g clip-path="url(#clip0)">
<path fill-rule="evenodd" clip-rule="evenodd" d="M51.25 12.5C51.25 5.60219 45.5773 0 38.6242 0C37.984 0 37.3261 0.0364964 36.6859 0.145985C31.2799 0.930657 27.6522 4.92701 25.625 7.9927C23.5978 4.92701 19.9701 0.930657 14.5641 0.145985C13.9239 0.0547445 13.266 0 12.6258 0C5.65493 0 0 5.60219 0 12.5C0 19.3978 5.67271 25 12.6258 25C13.266 25 13.9239 24.9635 14.5819 24.854C19.9879 24.0511 23.6155 20.0547 25.6428 16.9891C27.67 20.0547 31.2977 24.0511 36.7037 24.854C37.3439 24.9453 38.0018 25 38.6598 25C45.5773 25 51.25 19.3978 51.25 12.5ZM13.9416 20.4744C13.4971 20.5474 13.0525 20.5657 12.6079 20.5657C8.01996 20.5657 4.30336 16.9343 4.30336 12.5C4.30336 8.04744 8.03774 4.4343 12.6257 4.4343C13.0703 4.4343 13.5148 4.4708 13.9594 4.52554C19.0631 5.27372 22.1751 10.4379 23.242 12.5C22.1573 14.5803 19.0275 19.7263 13.9416 20.4744ZM37.2905 4.52554C32.1868 5.27372 29.057 10.4379 28.0079 12.5C29.057 14.562 32.1868 19.7263 37.2905 20.4744C37.735 20.5292 38.1796 20.5657 38.6242 20.5657C43.1944 20.5657 46.9287 16.9525 46.9287 12.5C46.9287 8.06569 43.2121 4.4343 38.6242 4.4343C38.1796 4.4343 37.735 4.4708 37.2905 4.52554ZM9.06449 11.161H16.7004V13.5642H9.06449V11.161ZM42.1479 13.5817H39.5728V16.1077H37.1049V13.5817H34.5298V11.161H37.1049V8.63499H39.5728V11.161H42.1479V13.5817Z" fill="white"/>
</g>
<rect width="80" height="25" transform="translate(59.25)" fill="white"/>
<path d="M68.599 6.65V19H71.658V14.573H76.883V12.103H71.658V9.139H77.339V6.65H68.599ZM86.0356 6.479C82.2926 6.479 80.8676 9.234 80.8676 12.958C80.8676 17.043 82.5016 19.19 86.0546 19.19C90.0256 19.19 91.3366 16.397 91.3366 12.825C91.3366 8.113 89.5506 6.479 86.0356 6.479ZM86.0546 16.701C84.2876 16.701 84.1166 15.447 84.1166 12.958C84.1166 9.937 84.4016 8.968 86.0356 8.968C87.8406 8.968 88.0876 9.804 88.0876 12.825C88.0876 15.675 87.8406 16.701 86.0546 16.701ZM94.4662 19H97.5252V15.086H99.0642L100.926 19H104.536L102.123 14.478C103.472 13.756 104.156 12.464 104.156 10.773C104.156 8.398 102.864 6.65 99.4442 6.65H94.4662V19ZM99.1402 12.635H97.5252V9.139H99.0832C100.508 9.139 100.907 9.69 100.907 10.792C100.907 12.16 100.204 12.635 99.1402 12.635ZM114.316 14.193C114.316 16.074 113.803 16.701 112.416 16.701C111.257 16.701 110.535 16.226 110.535 14.174V6.65H107.476V14.744C107.476 18.487 110.174 19.19 112.283 19.19C114.468 19.19 117.261 18.411 117.261 14.763V6.65H114.316V14.193ZM128.161 19H130.631V6.65H128.123L125.577 11.761L123.031 6.65H120.39V19H122.803V11.153L124.532 14.82H126.603L128.161 11.514V19Z" fill="#008184"/>
<defs>
<clipPath id="clip0">
<rect width="51.25" height="25" fill="white"/>
</clipPath>
</defs>
</svg>
