<?xml version="1.0" encoding="UTF-8"?>
<svg xmlns="http://www.w3.org/2000/svg" xmlns:xlink="http://www.w3.org/1999/xlink" width="18px" height="18px" viewBox="0 0 18 18" version="1.1">
    
    <g id="Logos" stroke="none" stroke-width="1" fill="none" fill-rule="evenodd">
        <g id="Group">
            <circle id="Oval" fill="#FF0077" cx="9" cy="9" r="9"/>
            <path d="M9.01603563,2.115 C5.03919822,2.115 1.8,5.32212695 1.8,9.23482183 L1.8,9.2668931 L3.01870824,9.97246102 L3.05077951,9.97246102 C3.82048998,9.45932071 4.75055679,9.2668931 5.68062361,9.42724944 C6.322049,9.55553452 6.93140312,9.84417595 7.41247216,10.2931737 L7.63697105,10.4856013 L7.76525612,10.2290312 C7.8935412,9.97246102 8.02182628,9.74796214 8.15011136,9.52346325 C8.2142539,9.42724944 8.27839644,9.3631069 8.34253898,9.2668931 L8.47082405,9.10653675 L8.31046771,8.97825167 C7.63697105,8.43304009 6.83518931,8.04818486 5.96926503,7.88782851 C5.13541203,7.72747216 4.30155902,7.75954343 3.53184855,8.01611359 C4.1091314,5.4824833 6.35412027,3.6864922 9.01603563,3.6864922 C10.5233853,3.6864922 11.9345212,4.26377506 12.9928731,5.32212695 C13.7625835,6.05976615 14.2757238,6.98983296 14.5002227,8.01611359 C14.0191537,7.85575724 13.5060134,7.7916147 12.9928731,7.7916147 L12.8966592,7.7916147 C12.7042316,7.7916147 12.511804,7.82368597 12.2873051,7.82368597 L12.2552339,7.82368597 C12.1910913,7.82368597 12.0948775,7.85575724 12.030735,7.85575724 C11.9024499,7.88782851 11.8062361,7.88782851 11.677951,7.91989978 L11.5817372,7.95197105 C11.4855234,7.98404232 11.3893096,8.01611359 11.2930958,8.04818486 L11.2610245,8.04818486 C11.0365256,8.11232739 10.844098,8.2085412 10.6195991,8.30475501 L10.6195991,8.30475501 C10.5233853,8.33682628 10.4271715,8.40096882 10.3309577,8.46511136 L10.2988864,8.46511136 C9.81781737,8.75375278 9.3688196,9.10653675 9.01603563,9.55553452 L8.98396437,9.61967706 C8.88775056,9.74796214 8.82360802,9.84417595 8.75946548,9.90831849 C8.69532294,9.97246102 8.66325167,10.0686748 8.59910913,10.1648886 L8.56703786,10.2290312 C8.50289532,10.325245 8.47082405,10.4214588 8.43875278,10.4856013 L8.43875278,10.5176726 C8.34253898,10.7101002 8.24632517,10.9345991 8.18218263,11.159098 L8.18218263,11.1911693 C8.02182628,11.7043096 7.92561247,12.2495212 7.92561247,12.826804 L7.92561247,12.8909465 C7.92561247,12.9550891 7.92561247,13.0513029 7.92561247,13.1154454 C7.92561247,13.1475167 7.92561247,13.179588 7.92561247,13.2116592 C7.92561247,13.2437305 7.92561247,13.3078731 7.92561247,13.3399443 L7.92561247,13.3720156 L7.92561247,13.4361581 C7.92561247,13.5003007 7.95768374,13.5965145 7.95768374,13.660657 C8.11804009,14.4303675 8.47082405,15.1680067 9.01603563,15.8415033 L9.0481069,15.8735746 L9.08017817,15.8415033 C9.30467706,15.5849332 9.81781737,14.7831514 9.88195991,14.3020824 L9.88195991,14.3020824 L9.88195991,14.3020824 C9.62538976,13.8210134 9.49710468,13.2758018 9.49710468,12.7626615 C9.49710468,10.9666704 10.9082405,9.45932071 12.7363029,9.3631069 L12.864588,9.3631069 C13.6022272,9.33103563 14.3398664,9.55553452 14.9492205,9.97246102 L14.9812918,9.97246102 L16.2,9.2668931 L16.2,9.2668931 L16.2,9.23482183 C16.2,7.34261693 15.4623608,5.54662584 14.0832962,4.19963252 C12.7363029,2.8526392 10.9403118,2.115 9.01603563,2.115" id="Path" fill="#FFFFFF"/>
        </g>
    </g>
</svg>
