<?xml version="1.0" encoding="UTF-8" standalone="no"?>
<!-- Created with Inkscape (http://www.inkscape.org/) -->
<svg xmlns:dc="http://purl.org/dc/elements/1.1/" xmlns:cc="http://creativecommons.org/ns#" xmlns:rdf="http://www.w3.org/1999/02/22-rdf-syntax-ns#" xmlns:svg="http://www.w3.org/2000/svg" xmlns="http://www.w3.org/2000/svg" xmlns:sodipodi="http://sodipodi.sourceforge.net/DTD/sodipodi-0.dtd" xmlns:inkscape="http://www.inkscape.org/namespaces/inkscape" width="51.805458" height="51.105679" viewBox="0 0 51.805458 51.105678" id="svg3412" version="1.1" inkscape:version="0.91 r13725" sodipodi:docname="dh-moon.svg">
  <defs id="defs3414"/>
  
  
  <g inkscape:label="Layer 1" inkscape:groupmode="layer" id="layer1" transform="translate(-301.95441,-429.66651)">
    <path class="st0" d="m 353.05987,468.06651 c -4.2,2.3 -9.1,3.6 -14.2,3.5 -15.3,-0.3 -27.4,-12.7 -27.1,-27.6 0.1,-5.1 1.6,-9.8 4.2,-13.8 -8.2,4.6 -13.8,13.1 -14,23 -0.3,14.9 11.8,27.3 27.1,27.6 10.1,0.2 19,-4.9 24,-12.7" id="path23" inkscape:connector-curvature="0" style="fill:#ffffff" inkscape:export-xdpi="90" inkscape:export-ydpi="90"/>
    <path class="st1" d="m 338.55987,468.36651 c 0.2,0 0.3,0 0.5,0 4,0 7.9,-1 11.4,-2.8 2.1,-3.5 3.3,-7.6 3.3,-12 -0.1,-13.2 -10.7,-23.9 -23.8,-23.9 -4.1,0 -8,1.1 -11.4,2.9 -2.2,3.5 -3.4,7.6 -3.5,11.7 -0.3,13 10.2,23.8 23.5,24.1" id="path25" inkscape:connector-curvature="0" style="fill:#3e95be" inkscape:export-xdpi="90" inkscape:export-ydpi="90"/>
  </g>
</svg>
