<?xml version="1.0" encoding="UTF-8"?>
<svg xmlns="http://www.w3.org/2000/svg" version="1.1" viewBox="0 0 36 36" height="36" width="36">
 <g transform="scale(1.1143 1.1623)" fill="none" fill-rule="evenodd">
  <g id="Large" transform="translate(-74,-11)" fill="#f8f8f8">
   <g id="header" transform="translate(74,11)">
    <g id="logo">
     <g id=".header-nav">
      <path id="Shape" d="m16 0c-8.84 0-16 7.16-16 16 0 7.08 4.58 13.06 10.94 15.18 0.8 0.14 1.1-0.34 1.1-0.76 0-0.38-0.02-1.64-0.02-2.98-4.02 0.74-5.06-0.98-5.38-1.88-0.18-0.46-0.96-1.88-1.64-2.26-0.56-0.3-1.36-1.04-0.02-1.06 1.26-0.02 2.16 1.16 2.46 1.64 1.44 2.42 3.74 1.74 4.66 1.32 0.14-1.04 0.56-1.74 1.02-2.14-3.56-0.4-7.28-1.78-7.28-7.9 0-1.74 0.62-3.18 1.64-4.3-0.16-0.4-0.72-2.04 0.16-4.24 0 0 1.34-0.42 4.4 1.64 1.28-0.36 2.64-0.54 4-0.54s2.72 0.18 4 0.54c3.06-2.08 4.4-1.64 4.4-1.64 0.88 2.2 0.32 3.84 0.16 4.24 1.02 1.12 1.64 2.54 1.64 4.3 0 6.14-3.74 7.5-7.3 7.9 0.58 0.5 1.08 1.46 1.08 2.96 0 2.14-0.02 3.86-0.02 4.4 0 0.42 0.3 0.92 1.1 0.76 6.32-2.12 10.9-8.12 10.9-15.18 0-8.84-7.16-16-16-16z"/>
     </g>
    </g>
   </g>
  </g>
 </g>
</svg>
