<?xml version="1.0" encoding="UTF-8" standalone="no"?>
<svg xmlns:dc="http://purl.org/dc/elements/1.1/" xmlns:cc="http://creativecommons.org/ns#" xmlns:rdf="http://www.w3.org/1999/02/22-rdf-syntax-ns#" xmlns:svg="http://www.w3.org/2000/svg" xmlns="http://www.w3.org/2000/svg" xmlns:sodipodi="http://sodipodi.sourceforge.net/DTD/sodipodi-0.dtd" xmlns:inkscape="http://www.inkscape.org/namespaces/inkscape" sodipodi:docname="forum_large.svg" inkscape:version="1.0 (4035a4f, 2020-05-01)" inkscape:export-ydpi="96" inkscape:export-xdpi="96" inkscape:export-filename="/Users/tom/Desktop/juce.png" id="svg1643" version="1.1" viewBox="0 0 31.750002 31.75" height="120" width="120">
  <defs id="defs1637">
    <rect x="-402.67773" y="142.32858" width="193.80957" height="31.165993" id="rect1022"/>
    <path id="SVGID_1_" d="M 0,0 H 113.4 V 35.9 H 0 Z"/>
  </defs>
  
  
  <g transform="translate(403.93951,-141.69769)" id="layer1" inkscape:groupmode="layer" inkscape:label="Layer 1">
    <g id="g872">
      <path style="fill:#ffffff;fill-opacity:1;stroke:#090909;stroke-width:0.940594;stroke-miterlimit:4;stroke-dasharray:none;stroke-opacity:1" d="m -400.48657,172.74638 c 0,-0.10655 0.28973,-2.70589 0.65032,-5.83434 l 0.20394,-1.76947 -0.41272,-0.65877 c -1.21056,-1.93231 -1.91248,-3.95908 -2.13389,-6.16158 -0.0594,-0.59103 -0.0598,-2.04627 -7.1e-4,-2.64328 0.27491,-2.77738 1.309,-5.31445 3.0684,-7.52822 0.43295,-0.54476 1.60202,-1.71383 2.14677,-2.14677 2.50092,-1.98762 5.40343,-3.05968 8.5155,-3.14521 2.89748,-0.0796 5.53518,0.6044 7.93589,2.05807 3.14571,1.90477 5.48062,5.04005 6.37604,8.56166 0.35322,1.38919 0.4696,2.4451 0.43227,3.92239 -0.0355,1.40544 -0.23703,2.60826 -0.65754,3.92435 -1.11496,3.4896 -3.62843,6.47101 -6.91001,8.1965 -1.42129,0.74733 -2.73094,1.18476 -4.4516,1.48688 -0.66361,0.11651 -0.76597,0.12235 -2.16777,0.12366 -1.50657,0.001 -1.7204,-0.0148 -2.6973,-0.20461 -0.70906,-0.13775 -1.29773,-0.29234 -1.94999,-0.5121 l -0.59019,-0.19883 -2.90963,1.05444 c -2.72556,0.98772 -4.38376,1.57894 -4.42847,1.57894 -0.0106,0 -0.0193,-0.0467 -0.0193,-0.10374 z" id="path2791"/>
      <g id="g2808" transform="matrix(2.3542379,0,0,2.3542379,462.307,-275.11188)">
        <g id="g2789">
          <path class="st9" d="m -364.57406,180.22862 c 1.85209,-1.85208 4.86834,-1.85208 6.72042,0 1.85208,1.85209 1.85208,4.86834 0,6.72042 -1.85208,1.85208 -4.86833,1.85208 -6.72042,0 -1.82562,-1.85208 -1.82562,-4.86833 0,-6.72042" id="path11" clip-path="url(#SVGID_2_)" style="fill:#6cc04a;fill-opacity:1;stroke-width:0.264583"/>
          <path class="st7" d="m -358.06531,186.73737 c 1.71979,-1.71979 1.71979,-4.55083 0,-6.27062 -1.71979,-1.71979 -4.55083,-1.71979 -6.27062,0 -1.71979,1.71979 -1.71979,4.55083 0,6.27062 1.71979,1.71979 4.52437,1.71979 6.27062,0" id="path13" clip-path="url(#SVGID_2_)" inkscape:connector-curvature="0" style="fill:#ffffff;stroke-width:0.264583"/>
          <path class="st8" d="m -358.43572,186.12883 c 0.10583,0.10583 0.29104,0.10583 0.39687,0 l 0.0265,-0.0265 c 0.47625,-0.58208 0.76729,-1.29646 0.84667,-2.03729 0,-0.0794 -0.0265,-0.15875 -0.0794,-0.23812 -0.0529,-0.0529 -0.13229,-0.10584 -0.21167,-0.10584 h -3.22791 c -0.0529,0 -0.0794,0.0529 -0.0265,0.10584 z" id="path15" clip-path="url(#SVGID_2_)" style="fill:#9cb6d3;fill-opacity:1;stroke-width:0.264583"/>
          <path class="st0" d="m -363.75385,186.36696 c -0.0529,0.0529 -0.0794,0.13229 -0.0794,0.21166 0,0.0794 0.0529,0.15875 0.10583,0.21167 0.58208,0.47625 1.29646,0.76729 2.03729,0.84667 0.0794,0 0.18521,-0.0265 0.23813,-0.0794 0.0529,-0.0529 0.0794,-0.13229 0.0794,-0.21167 V 184.118 c 0,-0.0529 -0.0529,-0.0794 -0.10583,-0.0265 z" id="path17" clip-path="url(#SVGID_2_)" style="fill:#a65a95;fill-opacity:1;stroke-width:0.264583"/>
          <path class="st6" d="m -360.94927,187.58404 c 0.0529,0.0529 0.1323,0.0794 0.23813,0.0794 0.74083,-0.0794 1.45521,-0.37041 2.03729,-0.84666 l 0.0265,-0.0265 c 0.10583,-0.10583 0.10583,-0.29104 0,-0.39688 l -2.30188,-2.30187 c -0.0265,-0.0265 -0.10583,0 -0.10583,0.0265 v 3.22791 c 0,0.10584 0.0529,0.18521 0.10583,0.23813" id="path19" clip-path="url(#SVGID_2_)" style="fill:#288dc1;fill-opacity:1;stroke-width:0.264583"/>
          <path class="st1" d="m -363.96552,181.04883 c -0.13229,-0.10583 -0.29104,-0.10583 -0.42333,0 l -0.0265,0.0265 c -0.47625,0.58208 -0.76729,1.29646 -0.84666,2.03729 0,0.0794 0.0265,0.15875 0.0794,0.21167 0.0529,0.0529 0.13229,0.10583 0.21167,0.10583 h 3.25437 c 0.0529,0 0.0794,-0.0529 0.0265,-0.10583 z" id="path21" clip-path="url(#SVGID_2_)" style="fill:#e67e3c;fill-opacity:1;stroke-width:0.264583"/>
          <path class="st2" d="m -365.1826,183.82696 c -0.0529,0.0529 -0.0794,0.13229 -0.0794,0.23812 0.0794,0.74083 0.37041,1.45521 0.84666,2.03729 0.0529,0.0794 0.13229,0.10584 0.21167,0.10584 0.0794,0 0.15875,-0.0265 0.21167,-0.0794 l 2.27541,-2.27542 c 0.0265,-0.0264 0,-0.10583 -0.0265,-0.10583 h -3.22791 c -0.0794,0 -0.15875,0.0265 -0.21167,0.0794" id="path23" clip-path="url(#SVGID_2_)" style="fill:#e73e51;fill-opacity:1;stroke-width:0.264583"/>
          <path class="st3" d="m -357.2451,183.35071 c 0.0529,-0.0529 0.0794,-0.1323 0.0794,-0.23813 -0.0794,-0.74083 -0.37042,-1.45521 -0.84667,-2.03729 -0.0529,-0.0529 -0.13229,-0.10583 -0.21167,-0.10583 -0.0794,0 -0.15875,0.0265 -0.21166,0.0794 l -2.30188,2.30188 c -0.0265,0.0265 0,0.10583 0.0265,0.10583 h 3.22792 c 0.10583,-0.0265 0.1852,-0.0529 0.23812,-0.10583" id="path25" clip-path="url(#SVGID_2_)" style="fill:#f0e049;fill-opacity:1;stroke-width:0.264583"/>
          <path class="st5" d="m -360.94927,183.11258 2.27542,-2.27542 c 0.0529,-0.0529 0.10583,-0.13229 0.0794,-0.21166 0,-0.0794 -0.0529,-0.15875 -0.10584,-0.21167 -0.58208,-0.47625 -1.29646,-0.76729 -2.03729,-0.84667 -0.0794,0 -0.18521,0.0265 -0.23812,0.0794 -0.0529,0.0529 -0.0794,0.13229 -0.0794,0.21167 v 3.22791 c 0,0.0529 0.0794,0.0794 0.10583,0.0265" id="path27" clip-path="url(#SVGID_2_)" style="fill:#f5bd47;fill-opacity:1;stroke-width:0.264583"/>
          <path class="st4" d="m -361.3726,179.83175 c 0,-0.0794 -0.0265,-0.15875 -0.10583,-0.21167 -0.0529,-0.0529 -0.13229,-0.0794 -0.23813,-0.0794 -0.71437,0.10583 -1.42875,0.39687 -2.01083,0.84666 l -0.0265,0.0265 c -0.0529,0.0529 -0.0794,0.13229 -0.0794,0.23813 0,0.0529 0.0265,0.13229 0.0794,0.1852 l 2.27542,2.27542 c 0.0265,0.0265 0.10583,0 0.10583,-0.0529 v -3.22791 z" id="path29" clip-path="url(#SVGID_2_)" style="fill:#f19f53;fill-opacity:1;stroke-width:0.264583"/>
        </g>
      </g>
    </g>
  </g>
  <style id="style3"><![CDATA[
	.st0{clip-path:url(#SVGID_2_);fill:#A65A95;}
	.st1{clip-path:url(#SVGID_2_);fill:#E67E3C;}
	.st2{clip-path:url(#SVGID_2_);fill:#E73E51;}
	.st3{clip-path:url(#SVGID_2_);fill:#F0E049;}
	.st4{clip-path:url(#SVGID_2_);fill:#F19F53;}
	.st5{clip-path:url(#SVGID_2_);fill:#F5BD47;}
	.st6{clip-path:url(#SVGID_2_);fill:#288DC1;}
	.st7{clip-path:url(#SVGID_2_);fill:#FFFFFF;}
	.st8{clip-path:url(#SVGID_2_);fill:#9CB6D3;}
	.st9{clip-path:url(#SVGID_2_);fill:#6CC04A;}
]]></style>
</svg>
