<?xml version="1.0" encoding="UTF-8"?>
<!DOCTYPE svg PUBLIC "-//W3C//DTD SVG 1.1//EN" "http://www.w3.org/Graphics/SVG/1.1/DTD/svg11.dtd">
<!-- Creator: CorelDRAW X8 -->
<svg xmlns="http://www.w3.org/2000/svg" xmlns:xlink="http://www.w3.org/1999/xlink" xml:space="preserve" width="70.9995mm" height="70.2351mm" version="1.1" style="shape-rendering:geometricPrecision; text-rendering:geometricPrecision; image-rendering:optimizeQuality; fill-rule:evenodd; clip-rule:evenodd" viewBox="0 0 19167 18961">
 <defs>
  <style type="text/css">
   <![CDATA[
    .str1 {stroke:#FCFCFC;stroke-width:269.961}
    .str0 {stroke:white;stroke-width:269.961}
    .str2 {stroke:#373435;stroke-width:95.2422}
    .fil0 {fill:none}
    .fil1 {fill:black}
    .fil2 {fill:white}
    .fil3 {fill:#373435;fill-rule:nonzero}
   ]]>
  </style>
 </defs>
 <g id="Engraving_x0020_">
  
  <rect class="fil0" x="9450" y="6020" width="149" height="149"/>
  <path class="fil1 str0" d="M8261 10234c-162,-85 -327,-183 -488,-287 -178,-116 -343,-211 -509,-322 -103,70 -357,292 -429,401 -129,194 -36,1665 -2016,2191 -664,175 -267,-128 -1055,660 -577,576 -1112,1112 -1688,1688 -300,299 -559,558 -858,858 -244,243 -817,678 -817,955 0,1033 1259,2435 2491,2435 218,0 2124,-2096 2532,-2505 300,-299 558,-558 858,-858 151,-151 262,-266 416,-414 454,-435 70,-329 473,-1187 689,-1470 1736,-1348 1928,-1448 117,-61 362,-343 434,-451 -45,-195 -430,-757 -553,-941 168,-251 3105,-3133 3584,-3611l2380 -2436c685,-685 731,-905 1375,-1060 724,-174 583,-136 1262,-1117 176,-254 921,-1262 974,-1462l-706 -732 -2102 1467c-406,297 -322,249 -446,771 -151,638 -242,454 -706,1010 -7,9 -18,21 -25,30l-50 61c-33,39 -34,41 -77,89 -64,72 -96,102 -163,169 -595,591 -5840,5778 -6019,6046z"/>
  <path class="fil1 str0" d="M11360 12808c197,288 836,821 1109,1132 475,539 1005,1056 1393,1655 198,306 132,853 212,1310 290,1650 2009,1921 3435,1921l218 -435c-138,-37 -371,-198 -510,-275 -181,-101 -327,-179 -500,-283 -329,-198 -688,-370 -993,-574 0,-735 262,-1349 728,-1797 136,-130 335,-290 534,-336 490,327 1461,798 1959,1131 9,-17 87,-169 87,-174 0,-466 -631,-1331 -1011,-1687 -902,-845 -2267,-667 -2576,-820 -655,-324 -1459,-1283 -1854,-1585 -175,-133 -579,-520 -697,-696l-1534 1513z"/>
  <path class="fil1 str0" d="M1461 527l2002 1132c40,324 37,653 -344,1309 -103,176 -217,324 -362,466 -521,510 -486,440 -1505,-173 -173,-104 -320,-182 -501,-283 -149,-83 -380,-260 -553,-275 -72,309 -106,91 27,452 151,414 473,957 788,1259 284,272 464,365 810,539 970,487 1520,98 2145,554l1443 1256c186,185 536,494 664,685l1535 -1513c-224,-327 -1507,-1537 -2020,-2224 -228,-306 -436,-470 -430,-1007 26,-2196 -1590,-2569 -3438,-2569 -140,0 -233,269 -261,392z"/>
  <path class="fil2" d="M9064 4101c-2917,555 -4609,3007 -4228,5748 343,2468 2722,4790 5689,4275 1491,-259 2495,-1016 3124,-1838 746,-975 1286,-2274 1058,-3892 -273,-1938 -1604,-3494 -3406,-4104 -638,-216 -1514,-326 -2237,-189z"/>
  <path class="fil1 str1" d="M9064 4101c723,-137 1599,-27 2237,189 1802,610 3133,2166 3406,4104 228,1618 -312,2917 -1058,3892 -629,822 -1633,1579 -3124,1838 -2967,515 -5346,-1807 -5689,-4275 -381,-2741 1311,-5193 4228,-5748zm-6009 4281c-40,487 -40,975 0,1462 284,3 422,0 712,-20 60,283 94,526 160,805 66,281 169,498 222,772l-626 286c170,535 538,1134 820,1490 176,-127 425,-271 610,-397 165,330 682,858 1022,1066 -174,284 -255,359 -438,641 415,332 775,681 1434,882 111,-192 217,-432 285,-650 568,154 1030,348 1721,453l-39 757c508,79 980,82 1488,-3 37,-306 23,-566 47,-763 788,-64 1099,-176 1721,-445l308 658c638,-201 1041,-475 1354,-805 -112,-154 -310,-459 -421,-583 116,-130 1038,-1069 1187,-1251 203,118 409,297 605,400 296,-357 648,-935 790,-1448l-681 -248c124,-625 321,-975 376,-1713 338,-14 510,-43 787,-50 47,-414 35,-802 -9,-1189 -218,-24 -185,10 -778,9 -55,-738 -252,-1087 -373,-1704l680 -251c-144,-518 -446,-1120 -742,-1477 -189,134 -450,297 -655,423 -139,-173 -1082,-1130 -1187,-1251 99,-124 309,-429 421,-584 -393,-339 -726,-601 -1375,-813l-279 671c-648,-177 -941,-385 -1731,-449l87 -764c-557,-73 -1118,-63 -1670,0l70 757c-672,105 -953,247 -1522,402 -100,-199 -205,-471 -323,-639 -616,250 -1153,584 -1576,920 135,221 261,361 439,641 -343,207 -855,736 -1026,1066 -222,-111 -433,-272 -607,-397 -288,375 -643,936 -831,1517l630 276 -375 1559c-300,-14 -505,-3 -712,-19z"/>
  <polygon class="fil3" points="7398,11359 7398,6822 7819,6822 9036,8727 10255,6822 10676,6822 10676,11359 10206,11359 10206,7817 9036,9645 7868,7817 7868,11359 "/>
  <polygon class="fil3" points="10301,11371 10301,6833 12227,6833 12227,7411 10781,7411 10781,8753 12183,8753 12183,9338 10781,9338 10781,11371 "/>
  <circle class="fil0 str2" cx="9751" cy="9159" r="3836"/>
  <polygon class="fil3" points="6432,6902 5928,6537 5775,6749 5700,6695 6067,6188 6142,6243 5988,6455 6491,6820 "/>
  <path id="1" class="fil3" d="M6688 6552l-519 -491 64 -68 218 206c0,-32 5,-61 13,-85 9,-24 22,-45 40,-65 36,-37 74,-57 116,-58 42,-1 82,16 119,52l227 215 -65 69 -210 -199c-28,-26 -54,-40 -78,-41 -24,-1 -47,11 -70,35 -17,19 -29,38 -35,58 -6,20 -7,43 -3,70l248 234 -65 68z"/>
  <path id="2" class="fil3" d="M7345 5879c-13,35 -28,67 -48,96 -20,28 -44,53 -72,75 -59,47 -120,65 -183,57 -64,-9 -119,-44 -167,-104 -44,-55 -62,-114 -56,-175 6,-61 36,-112 90,-155 54,-42 110,-58 169,-48 59,11 112,46 159,105l9 11 -278 219c30,34 63,52 99,55 37,3 73,-9 108,-37 23,-18 44,-42 63,-71 19,-29 34,-63 48,-103l59 75zm-418 29l196 -155c-24,-25 -51,-39 -81,-42 -30,-3 -57,6 -83,26 -29,22 -45,48 -51,77 -5,29 1,60 19,94z"/>
  <polygon id="3" class="fil3" points="7685,5704 7363,5067 7442,5026 7807,5178 7901,4795 7981,4754 8303,5392 8215,5436 7963,4939 7872,5307 7522,5162 7773,5660 "/>
  <path id="4" class="fil3" d="M8635 5203l-37 -134c-55,36 -92,66 -111,88 -18,23 -25,45 -19,66 6,19 15,32 30,39 15,7 33,7 55,1 16,-4 31,-11 44,-21 14,-10 27,-23 38,-39zm19 55c-18,22 -37,40 -56,52 -18,13 -39,23 -63,29 -40,11 -75,10 -103,-3 -29,-13 -48,-37 -57,-71 -9,-32 -4,-64 14,-95 18,-31 50,-62 96,-93l97 -65c0,-3 -1,-6 -1,-9 -1,-2 -2,-6 -3,-11 -8,-27 -20,-45 -36,-53 -17,-9 -41,-9 -71,0 -25,7 -50,19 -73,37 -24,19 -47,42 -68,70l-25 -89c18,-26 40,-48 67,-65 26,-18 55,-31 87,-40 59,-16 105,-15 138,3 34,19 59,57 75,114l53 193c5,16 9,27 14,33 5,6 10,8 17,7 5,-2 11,-5 16,-10 5,-4 13,-14 23,-29l16 56c-13,18 -26,33 -41,44 -15,12 -31,20 -49,25 -18,5 -32,5 -42,0 -11,-5 -19,-15 -25,-30z"/>
  <path id="5" class="fil3" d="M9202 4696l-156 248 280 209 -127 24 -272 -206 160 -254 115 -21zm-325 540l-129 -702 92 -17 129 702 -92 17z"/>
  <path id="6" class="fil3" d="M9787 5096c-31,21 -63,36 -96,47 -33,11 -68,16 -103,17 -75,1 -134,-21 -180,-66 -45,-45 -68,-107 -70,-183 -1,-71 19,-129 61,-173 42,-45 97,-68 166,-70 68,-1 123,20 163,64 41,44 62,104 63,180l1 14 -354 7c4,44 19,79 46,103 27,25 63,37 107,36 30,-1 62,-7 94,-18 32,-12 66,-30 100,-53l2 95zm-350 -230l250 -5c-4,-35 -17,-62 -39,-82 -22,-21 -50,-31 -82,-30 -37,1 -65,11 -87,31 -22,19 -36,48 -42,86z"/>
  <path id="7" class="fil3" d="M9885 5143l39 -470 94 7 -9 104c30,-39 56,-66 78,-80 22,-15 45,-21 70,-19 17,1 34,6 50,15 17,9 35,22 53,39l-58 80c-14,-14 -27,-25 -41,-32 -13,-7 -28,-12 -43,-13 -25,-2 -48,7 -69,27 -21,19 -37,48 -48,85l-22 265 -94 -8z"/>
  <polygon id="8" class="fil3" points="10550,5223 10713,4527 11108,4620 11087,4708 10790,4639 10743,4844 11030,4911 11009,5001 10722,4934 10649,5246 "/>
  <path id="9" class="fil3" d="M11194 5156c-16,41 -16,81 0,121 17,39 44,67 83,82 39,15 77,14 116,-5 40,-18 67,-47 83,-88 15,-40 15,-80 -1,-119 -16,-40 -44,-67 -83,-83 -39,-15 -78,-13 -116,5 -39,18 -67,47 -82,87zm-93 -36c25,-64 69,-109 132,-135 62,-27 126,-28 192,-2 31,12 58,29 81,52 24,22 42,49 56,79 14,32 21,63 22,95 1,32 -4,63 -16,93 -12,31 -29,58 -52,81 -24,24 -50,42 -80,55 -31,13 -63,20 -95,20 -32,0 -63,-6 -95,-18 -65,-25 -112,-69 -140,-131 -28,-62 -30,-125 -5,-189z"/>
  <path id="10" class="fil3" d="M11561 5567l236 -409 82 47 -52 90c43,-23 78,-36 104,-40 26,-3 50,1 71,13 15,9 28,21 40,36 11,15 22,34 31,57l-86 48c-7,-19 -15,-35 -24,-47 -9,-12 -20,-22 -33,-30 -22,-12 -47,-14 -74,-5 -27,9 -54,28 -80,57l-133 230 -82 -47z"/>
  <path id="11" class="fil3" d="M12187 5891c-32,5 -61,5 -86,0 -25,-4 -48,-14 -70,-30 -42,-30 -67,-65 -74,-106 -7,-42 4,-84 34,-126l181 -256 77 55 -166 237c-22,31 -32,58 -29,83 2,24 18,46 45,65 20,14 40,23 60,25 21,3 44,1 71,-7l196 -278 77 54 -272 386 -77 -54 33 -48z"/>
  <path id="12" class="fil3" d="M12326 6066l324 -342 68 64 -39 42c32,0 60,4 84,12 25,9 46,22 66,41 25,24 42,48 50,73 8,25 9,54 1,84 41,0 75,4 101,12 27,9 51,23 71,42 38,35 57,74 58,116 2,42 -16,81 -51,119l-215 227 -69 -65 198 -210c27,-28 40,-54 41,-78 1,-24 -10,-47 -35,-71 -18,-16 -37,-28 -56,-34 -20,-6 -44,-6 -71,-3l-234 248 -67 -64 198 -210c26,-28 40,-54 41,-78 1,-24 -11,-48 -36,-71 -17,-17 -36,-28 -56,-34 -19,-5 -43,-6 -70,-2l-234 247 -68 -65z"/>
  <path id="13" class="fil3" d="M12911 6620l82 -58c1,34 5,65 12,92 7,27 17,49 29,67 14,20 29,33 44,39 15,6 29,4 42,-4 16,-12 20,-45 11,-102 -3,-17 -4,-29 -5,-39 -7,-48 -7,-85 1,-111 8,-25 24,-47 49,-64 33,-23 66,-29 102,-19 35,10 66,35 95,75 15,22 27,45 36,68 9,24 15,49 17,76l-75 53c-4,-33 -9,-62 -17,-86 -7,-24 -17,-45 -29,-62 -11,-16 -23,-27 -35,-32 -11,-5 -23,-3 -33,4 -20,14 -24,57 -13,129l1 10c9,57 9,97 2,121 -7,24 -22,45 -47,62 -34,24 -70,30 -108,19 -38,-12 -72,-38 -101,-81 -17,-24 -31,-49 -40,-75 -10,-25 -17,-53 -20,-82z"/>
  <polygon class="fil3" points="5815,11677 6370,11315 6576,11630 6506,11676 6352,11440 6187,11547 6337,11777 6266,11823 6116,11593 5867,11756 "/>
  <path id="1" class="fil3" d="M6297 11978c-32,25 -51,58 -57,97 -5,39 4,74 28,104 24,30 55,47 95,51 40,4 75,-7 107,-32 31,-24 50,-56 55,-95 6,-40 -3,-74 -27,-105 -24,-30 -56,-47 -95,-51 -40,-4 -75,7 -106,31zm-57 -72c50,-39 106,-55 168,-46 63,8 114,37 155,88 18,24 32,51 40,80 8,29 11,59 8,89 -4,32 -13,61 -27,86 -14,26 -33,49 -57,68 -24,18 -50,31 -80,40 -30,8 -60,10 -90,6 -30,-4 -59,-14 -84,-28 -26,-15 -49,-35 -68,-59 -40,-51 -57,-108 -50,-171 7,-63 35,-114 85,-153z"/>
  <path id="2" class="fil3" d="M6424 12458l315 -303 60 63 -67 65c44,-9 78,-11 102,-8 25,4 45,14 61,30 10,12 19,25 25,42 6,17 11,36 13,60l-88 19c-1,-19 -4,-35 -9,-48 -5,-13 -13,-25 -23,-35 -16,-17 -37,-25 -64,-24 -27,1 -55,11 -86,30l-179 172 -60 -63z"/>
  <path id="3" class="fil3" d="M6933 12856c-30,2 -56,0 -79,-7 -23,-7 -43,-18 -62,-34 -36,-31 -56,-66 -59,-105 -3,-38 11,-76 42,-112l188 -219 67 57 -173 203c-23,26 -34,51 -34,73 0,23 13,44 36,65 17,14 35,24 53,28 19,4 41,4 66,-1l204 -238 66 56 -284 332 -66 -56 35 -42z"/>
  <path id="4" class="fil3" d="M7047 13030l236 -368 73 47 -29 45c30,-6 56,-7 80,-4 23,3 45,12 66,25 27,18 47,37 58,59 12,21 17,47 16,77 37,-8 68,-11 94,-8 26,3 50,12 73,26 40,26 64,58 72,96 9,38 0,77 -26,117l-155 244 -75 -48 144 -224c19,-30 27,-56 24,-78 -4,-22 -19,-42 -45,-59 -19,-12 -39,-19 -58,-21 -19,-2 -40,1 -64,9l-170 265 -71 -45 143 -225c19,-30 27,-56 24,-78 -4,-23 -19,-42 -46,-59 -18,-12 -37,-19 -56,-21 -19,-2 -41,1 -65,10l-169 264 -74 -46z"/>
  <path id="5" class="fil3" d="M7738 13385c7,-14 18,-24 33,-28 15,-5 29,-4 44,3 14,8 24,19 29,33 4,15 3,30 -4,44 -7,14 -18,23 -33,28 -14,5 -29,4 -43,-3 -15,-8 -24,-19 -29,-33 -5,-15 -4,-30 3,-44z"/>
  <path id="6" class="fil3" d="M7925 13536l153 -409 82 30 -19 50c27,-11 53,-18 77,-19 23,-2 46,2 70,11 30,11 53,26 69,44 16,19 26,43 31,72 35,-16 65,-24 91,-27 26,-2 51,1 76,11 44,16 75,42 91,78 16,35 16,75 -1,120l-101 271 -83 -31 94 -250c13,-33 15,-61 7,-81 -8,-21 -27,-37 -56,-48 -21,-8 -42,-11 -61,-9 -19,2 -39,10 -61,23l-111 295 -80 -30 94 -250c13,-34 15,-61 7,-82 -8,-21 -27,-37 -57,-48 -20,-8 -40,-10 -59,-8 -19,2 -39,10 -61,23l-111 295 -81 -31z"/>
  <path id="7" class="fil3" d="M8880 13739l24 -126c-61,7 -104,16 -129,27 -24,11 -39,27 -43,47 -3,17 0,32 10,43 9,12 24,20 45,24 15,3 30,3 46,0 16,-2 31,-8 47,-15zm-6 52c-25,11 -47,18 -68,21 -21,3 -42,3 -64,-1 -39,-8 -67,-23 -85,-45 -18,-23 -24,-50 -18,-82 5,-30 22,-55 50,-73 28,-19 67,-31 117,-38l109 -15c0,-2 1,-5 2,-7 0,-3 1,-6 2,-11 5,-26 2,-46 -8,-60 -10,-14 -30,-24 -59,-29 -24,-5 -49,-4 -77,1 -27,5 -55,15 -84,31l16 -85c25,-14 52,-23 81,-26 29,-4 59,-3 90,2 55,11 93,31 114,60 20,29 25,71 15,125l-35 182c-3,15 -3,26 -2,33 2,6 5,11 12,12 5,1 11,0 17,-1 6,-2 17,-7 32,-14l-10 52c-18,10 -36,17 -53,20 -17,4 -34,4 -51,1 -16,-3 -28,-9 -35,-18 -7,-8 -10,-20 -8,-35z"/>
  <path id="8" class="fil3" d="M9486 13465l-198 184 200 254 -119 -9 -194 -249 204 -189 107 9zm-419 405l53 -660 86 7 -52 659 -87 -6z"/>
  <path id="9" class="fil3" d="M9913 13859c-28,20 -58,34 -88,44 -31,10 -62,15 -95,16 -69,2 -125,-19 -167,-61 -42,-41 -64,-98 -65,-169 -2,-66 17,-119 56,-161 38,-41 90,-63 153,-64 63,-1 114,18 152,59 38,40 57,96 59,166l0 13 -328 7c4,41 18,73 43,96 25,23 58,33 100,33 28,-1 56,-7 86,-18 30,-11 61,-27 93,-48l1 87zm-324 -212l232 -5c-4,-32 -16,-57 -37,-76 -20,-19 -46,-28 -76,-28 -33,1 -60,11 -80,29 -20,18 -33,45 -39,80z"/>
  <path id="10" class="fil3" d="M10004 13897l-39 -435 87 -7 8 94c21,-40 40,-69 58,-85 18,-17 39,-27 61,-29 16,-1 32,1 49,7 17,5 35,14 54,27l-40 82c-15,-11 -29,-19 -43,-23 -13,-5 -27,-6 -41,-5 -24,2 -43,14 -59,35 -16,22 -26,50 -30,86l21 246 -86 7z"/>
  <path id="11" class="fil3" d="M10569 13824l-89 16 -65 -354 -56 10 -14 -75 56 -10 -7 -39c-7,-37 -10,-65 -10,-82 0,-18 2,-33 8,-47 9,-22 23,-41 42,-57 20,-15 44,-25 71,-30 8,-1 18,-2 29,-3 11,0 24,0 41,1l14 76c-12,-1 -23,-1 -32,0 -9,0 -17,1 -24,2 -26,5 -43,16 -51,32 -8,16 -9,43 -2,79l9 52 58 -11 13 75 -57 10 66 355z"/>
  <path id="12" class="fil3" d="M10716 13570c11,40 33,70 67,91 34,20 70,26 107,16 37,-10 66,-32 85,-67 19,-35 24,-73 13,-112 -10,-38 -32,-68 -66,-89 -34,-21 -70,-26 -107,-16 -38,10 -66,32 -85,67 -19,35 -24,71 -14,110zm-88 24c-16,-62 -8,-119 25,-174 32,-54 79,-89 142,-106 30,-8 60,-10 89,-6 30,4 59,14 86,29 27,16 50,36 68,59 19,23 31,49 39,79 8,29 10,58 5,89 -4,30 -14,59 -30,85 -15,26 -35,49 -59,66 -24,18 -51,31 -81,39 -63,17 -122,9 -177,-22 -55,-31 -90,-77 -107,-138z"/>
  <path id="13" class="fil3" d="M11212 13659l-140 -414 83 -28 30 90c11,-43 23,-76 37,-96 13,-20 31,-34 52,-42 15,-5 31,-7 49,-5 18,1 37,6 59,13l-20 89c-17,-7 -33,-11 -47,-12 -14,-1 -27,1 -41,5 -22,8 -39,24 -49,48 -10,24 -13,55 -9,90l79 234 -83 28z"/>
  <path id="14" class="fil3" d="M11790 13369c-11,28 -24,51 -40,69 -15,17 -35,31 -57,42 -43,20 -83,23 -120,9 -36,-13 -64,-42 -84,-85l-120 -263 80 -37 111 243c15,32 33,53 53,62 21,9 45,7 74,-6 20,-9 36,-21 48,-36 12,-15 20,-35 27,-60l-132 -286 80 -37 182 398 -79 36 -23 -49z"/>
  <path id="15" class="fil3" d="M11998 13342l-237 -368 72 -47 30 46c7,-30 17,-54 30,-74 13,-20 30,-36 51,-50 27,-17 52,-27 77,-29 24,-2 50,4 76,17 8,-36 19,-66 33,-88 13,-22 31,-41 53,-55 40,-26 79,-35 117,-27 38,9 70,33 96,73l157 243 -74 48 -145 -224c-20,-30 -40,-48 -61,-54 -22,-6 -45,-1 -71,16 -20,12 -34,27 -43,43 -10,17 -16,38 -19,63l171 264 -72 47 -145 -225c-19,-29 -39,-47 -61,-53 -22,-6 -46,0 -72,17 -19,12 -33,26 -43,43 -9,16 -15,37 -18,62l171 265 -73 47z"/>
  <path id="16" class="fil3" d="M12595 12906l-60 -71c31,-4 59,-10 83,-19 24,-9 44,-20 60,-33 17,-14 27,-29 32,-43 4,-15 2,-28 -8,-39 -11,-14 -43,-14 -95,-1 -15,3 -26,6 -35,8 -44,10 -79,13 -103,8 -24,-5 -45,-18 -63,-40 -24,-27 -32,-58 -26,-91 6,-34 26,-65 61,-95 19,-16 39,-29 60,-39 21,-10 44,-18 69,-22l55 65c-30,6 -56,13 -78,22 -21,9 -40,20 -55,33 -14,11 -22,23 -26,34 -4,11 -1,22 6,31 15,17 55,17 121,1l8 -2c52,-13 89,-17 112,-12 23,4 43,17 61,38 25,29 34,62 26,98 -7,36 -29,70 -65,101 -21,17 -43,32 -66,43 -23,11 -48,19 -74,25z"/>
  <path id="17" class="fil3" d="M12883 12630c-11,-12 -16,-26 -16,-41 1,-16 7,-29 18,-40 12,-12 26,-17 41,-16 16,0 29,6 40,18 11,11 16,25 16,40 0,16 -6,29 -18,41 -11,11 -25,16 -41,16 -15,-1 -29,-7 -40,-18z"/>
  <path id="18" class="fil3" d="M12676 12110c-10,-9 -15,-21 -16,-34 0,-13 5,-25 14,-35 10,-10 22,-15 35,-15 13,-1 25,4 35,14 10,9 15,21 15,34 0,14 -4,25 -14,35 -9,10 -21,15 -34,16 -14,0 -25,-5 -35,-15zm410 389l-314 -303 61 -63 314 303 -61 63z"/>
  <path id="19" class="fil3" d="M13227 12353l-341 -272 54 -68 41 33c-2,-30 -1,-56 5,-79 6,-23 17,-45 32,-64 29,-37 63,-57 102,-61 38,-5 76,8 114,38l226 181 -54 68 -209 -167c-27,-22 -52,-32 -75,-31 -22,1 -44,14 -63,39 -14,17 -23,35 -27,54 -3,18 -3,40 3,65l246 196 -54 68z"/>
  <path id="20" class="fil3" d="M13586 11882l-50 74 -299 -203 -33 47 -62 -42 32 -48 -32 -22c-32,-22 -53,-39 -66,-51 -12,-12 -21,-25 -27,-38 -10,-22 -13,-46 -10,-70 3,-25 13,-49 28,-71 5,-8 11,-15 18,-23 8,-8 18,-18 30,-29l62 42c-8,9 -16,17 -22,24 -6,7 -11,13 -15,18 -15,22 -19,42 -13,59 6,17 24,36 54,57l44 30 32 -48 63 43 -33 48 299 203z"/>
  <path id="21" class="fil3" d="M13518 11594c35,22 71,28 110,20 39,-8 69,-29 89,-62 20,-33 25,-68 15,-107 -11,-38 -33,-68 -67,-89 -35,-21 -71,-28 -110,-19 -39,8 -68,29 -88,61 -21,33 -26,69 -16,107 11,39 33,68 67,89zm-48 79c-54,-34 -88,-81 -102,-143 -15,-61 -5,-120 29,-175 16,-26 37,-48 61,-66 24,-17 52,-30 81,-38 31,-7 62,-8 91,-4 29,4 57,14 83,30 25,16 47,36 65,62 18,25 30,52 37,82 7,30 8,60 3,89 -5,29 -16,57 -32,84 -34,55 -82,90 -143,106 -61,15 -119,6 -173,-27z"/>
 </g>
</svg>
