<?xml version="1.0" encoding="UTF-8" standalone="no"?>
<!DOCTYPE svg PUBLIC "-//W3C//DTD SVG 1.1//EN" "http://www.w3.org/Graphics/SVG/1.1/DTD/svg11.dtd">
<svg xmlns="http://www.w3.org/2000/svg" xmlns:xlink="http://www.w3.org/1999/xlink" xmlns:serif="http://www.serif.com/" width="100%" height="100%" viewBox="0 0 180 180" version="1.1" xml:space="preserve" style="fill-rule:evenodd;clip-rule:evenodd;stroke-linejoin:round;stroke-miterlimit:2;">
  <rect id="apple-touch-icon-community-forum-logo" serif:id="apple touch icon community forum logo" x="0" y="0" width="180" height="180" style="fill:none;"/>
  <path id="pinegrow-logo" serif:id="pinegrow logo" d="M165.776,114.769l-9.953,11.989c-1.56,1.908 -5.263,2.663 -7.461,1.535l-29.863,-15.353c-0.074,-0.05 -0.137,-0.084 -0.201,-0.113c0.064,-0.049 0.127,-0.079 0.201,-0.108l25.35,-13.607c2.639,-1.408 7.962,-1.408 10.611,-0.015l2.766,1.471c3.468,1.84 8.05,5.514 9.82,7.873c0.751,1.006 0.633,4.033 -1.27,6.328m-41.852,50.485c-1.545,1.884 -5.116,2.556 -7.255,1.393l-1.295,-0.711l-4.866,-2.703c-0.363,-0.181 -0.593,-0.372 -0.736,-0.495c0.143,-0.152 0.368,-0.329 0.697,-0.545l32.821,-20.249l-19.366,23.31Zm-57.588,4.871c-3.281,0 -8.206,-2.325 -10.316,-4.871l-8.952,-10.786c-0.569,-0.717 -0.819,-1.472 -0.682,-2.154c0.128,-0.682 0.643,-1.295 1.448,-1.712l5.955,-3.203c1.295,-0.682 3.173,-1.094 5.189,-1.094c2.031,0 4.032,0.442 5.337,1.158l41.146,22.662l-39.125,0Zm-43.671,-45.114l27.126,14.559c0.137,0.079 0.25,0.143 0.343,0.192c-0.093,0.063 -0.206,0.132 -0.343,0.191l-5.945,3.193c-0.731,0.383 -1.624,0.594 -2.595,0.594c-1.859,0 -3.728,-0.785 -4.754,-2.016l-13.832,-16.713Zm-8.668,-18.022l17.909,-23.878c1.428,-1.914 4.881,-2.723 7.02,-1.604l14.946,7.686c0.088,0.044 0.162,0.079 0.221,0.118c-0.059,0.044 -0.133,0.093 -0.221,0.122l-34.43,18.572c-1.987,1.069 -4.503,1.751 -6.431,1.751c-0.152,0 -0.275,0 -0.402,-0.025c0.152,-0.632 0.544,-1.628 1.388,-2.742m27.832,-37.128l13.676,-18.213c0.957,-1.265 2.738,-2.09 4.548,-2.09c0.868,0 1.692,0.182 2.379,0.55l12.327,6.568l0.004,0l19.818,10.551c0.024,0 0.039,0.015 0.059,0.03c0.108,0.044 0.201,0.117 0.269,0.162c-0.078,0.049 -0.181,0.117 -0.299,0.171l-26.12,14c-1.354,0.711 -3.405,1.143 -5.494,1.143c-2.046,0 -3.954,-0.383 -5.259,-1.045l-14.946,-7.701c-0.839,-0.417 -1.388,-1.07 -1.565,-1.815c-0.167,-0.741 0.049,-1.55 0.603,-2.311m23.713,-31.251c9.207,-11.631 20.582,-24.909 24.683,-28.279c2.472,1.741 7.731,7.113 12.243,12.621c0.584,0.707 0.825,1.472 0.677,2.163c-0.127,0.682 -0.652,1.271 -1.447,1.722l-28.843,15.329c-2.614,0.775 -6.077,0.692 -7.608,-0.113c-0.348,-0.196 -0.534,-0.426 -0.608,-0.794c-0.128,-0.564 0.054,-1.57 0.903,-2.649m56.837,10.301c0.569,0.76 0.785,1.599 0.618,2.364c-0.172,0.785 -0.716,1.452 -1.555,1.908l-12.263,6.569c-2.624,1.422 -7.937,1.422 -10.586,0.029l-0.009,-0.015l-19.862,-10.566c-0.118,-0.049 -0.221,-0.108 -0.314,-0.171c0.093,-0.049 0.206,-0.118 0.314,-0.182l26.969,-14.529c2.085,-1.128 5.465,-0.368 6.887,1.525l9.801,13.068Zm29.397,39.178l-7.912,-4.218c-0.024,0 -0.024,0 -0.029,-0.02l-30.634,-16.29c-0.005,-0.01 -0.019,-0.01 -0.044,-0.01c-0.108,-0.069 -0.206,-0.113 -0.28,-0.177c0.074,-0.049 0.182,-0.117 0.305,-0.181l12.248,-6.573c2.09,-1.109 5.479,-0.348 6.902,1.52l19.444,25.949Zm-42.759,18.331c-2.026,0 -3.939,-0.382 -5.249,-1.069l-31.29,-16.089c-0.074,-0.039 -0.143,-0.069 -0.211,-0.118c0.068,-0.02 0.137,-0.069 0.211,-0.113l26.115,-13.995c2.639,-1.402 7.957,-1.422 10.61,-0.029l0.02,0l30.707,16.359c0.098,0.03 0.167,0.074 0.245,0.123c-0.098,0.064 -0.206,0.117 -0.314,0.181l-25.355,13.598c-1.349,0.721 -3.404,1.152 -5.489,1.152m30.732,26.935c0.245,0.147 0.456,0.275 0.598,0.378c-0.137,0.123 -0.319,0.275 -0.579,0.432l-33.728,20.837c-2.443,1.516 -7.53,1.634 -10.051,0.236l-27.602,-15.187c-0.157,-0.083 -0.295,-0.157 -0.398,-0.24c0.113,-0.069 0.241,-0.143 0.398,-0.241l35.509,-19.027c2.654,-1.423 8.064,-1.457 10.738,-0.093l11.095,5.704l14.02,7.201Zm-116.329,-17.541c-0.118,-0.039 -0.24,-0.108 -0.324,-0.172c0.103,-0.063 0.216,-0.132 0.344,-0.211l34.44,-18.551c2.639,-1.428 8.064,-1.477 10.722,-0.098l31.296,16.094c0.079,0.029 0.142,0.064 0.211,0.113c-0.069,0.014 -0.132,0.058 -0.211,0.112l-35.494,19.023c-2.649,1.432 -7.972,1.432 -10.615,0l-30.369,-16.31Zm150.391,-12.45c-1.428,-1.893 -3.861,-4.159 -6.505,-6.224c0,-2.428 -1.633,-4.611 -2.354,-5.587l-25.866,-34.475c-1.878,-2.487 -4.63,-4.238 -7.73,-4.993c0.353,-2.865 -0.403,-5.823 -2.218,-8.251l-9.81,-13.073c-1.889,-2.531 -4.675,-4.272 -7.814,-5.037c0.27,-2.84 -0.564,-5.754 -2.521,-8.133c-13.24,-16.143 -17.596,-16.143 -19.013,-16.143c-2.041,0 -5.818,0 -31.061,31.918c-1.962,2.492 -2.864,5.44 -2.668,8.251c-3.002,0.809 -5.675,2.521 -7.51,4.969l-13.661,18.208c-1.815,2.433 -2.556,5.357 -2.212,8.207c-3.106,0.79 -5.848,2.536 -7.726,5.047l-17.909,23.874c-2.551,3.4 -3.616,7.172 -2.924,10.306c0.157,0.702 0.417,1.325 0.726,1.908c-0.167,2.59 1.727,4.925 2.639,6.019l22.324,26.95c1.982,2.379 4.837,4.042 7.996,4.738c-0.221,2.816 0.642,5.676 2.59,8.011l8.942,10.791c3.738,4.518 10.963,7.908 16.81,7.908l47.263,0c4.336,0 6.337,-1.443 7.259,-3.022c3.768,-0.388 7.26,-2.105 9.575,-4.866l21.392,-25.777c1.6,-1.928 3.998,-5.337 4.332,-8.57c2.413,-0.863 4.601,-2.251 6.18,-4.16l9.929,-12.003c4.169,-5.018 4.836,-12.391 1.545,-16.791" style="fill:#0198cd;fill-opacity:0.9;fill-rule:nonzero;"/>
</svg>
