<?xml version="1.0" encoding="utf-8"?>
<!-- Generator: Adobe Illustrator 24.2.1, SVG Export Plug-In . SVG Version: 6.00 Build 0)  -->
<svg xmlns="http://www.w3.org/2000/svg" xmlns:xlink="http://www.w3.org/1999/xlink" version="1.1" id="Layer_1" x="0px" y="0px" viewBox="0 0 512 512" style="enable-background:new 0 0 512 512;" xml:space="preserve">
<style type="text/css">
	.st0{fill-rule:evenodd;clip-rule:evenodd;fill:#F1F1F1;}
	.st1{fill-rule:evenodd;clip-rule:evenodd;fill:url(#SVGID_1_);}
</style>
<path class="st0" d="M455,56.7C400.8,10.2,332.1,0,266,0h-20.9C177.3,0,107.7,11.5,57.4,56.7C11.3,110.9,1,180.5,1,245.8v20.9  c0,67,11.5,138.7,56.7,188.6c52.9,47.4,123.7,56.7,189,56.7h18.3c67,0,138.7-11.5,189-56.7c47.4-52.9,56.7-123.7,56.7-189v-19.6  C511.8,177.9,499.8,106.7,455,56.7"/>
<g transform="translate(7 15)">
	
		<linearGradient id="SVGID_1_" gradientUnits="userSpaceOnUse" x1="-850.5715" y1="1050.1516" x2="-857.3853" y2="1042.3989" gradientTransform="matrix(36.0637 0 0 -34.3163 31049.7793 36164.7344)">
		<stop offset="0" style="stop-color:#2ABCC3"/>
		<stop offset="1" style="stop-color:#4269B1"/>
	</linearGradient>
	<path class="st1" d="M206.5,109.1c0,22.2,18.3,42.2,39.7,46.1v34.6c-20.9,2.6-41,15.8-50.3,34.6l-32-11.5c1.3-9-1.3-18.3-5.1-26.9   c-5.1-10.2-15.8-19.6-28.2-22.2c-3.8-2.6-9-3.8-14.5-3.8c-19.6,0-38.4,13.2-44.8,33.3c-7.7,24.7,5.1,51.6,30.7,59.3   c3.8,1.3,9,2.6,14.5,2.6c17.1,0,33.3-9,41-23.5l33.3,10.2c-1.3,2.6-1.3,6.4-1.3,9c0,34.6,29.4,63.1,64.4,63.1s64.4-29.4,64.4-63.1   c0-32-22.2-56.7-52.9-61.9v-34.6c20.9-3.8,35.8-23.5,35.8-46.1c0-24.7-20.9-47.4-47.4-47.4C227.5,61.7,206.5,83.1,206.5,109.1z    M224.5,109.1c0-15.8,11.5-28.2,29.4-28.2c15.8,0,29.4,11.5,29.4,28.2s-11.9,28.2-29.4,28.2C238.1,137.2,224.5,124,224.5,109.1z    M107.6,233.7c-14.5-3.8-22.2-19.6-18.3-34.6c3.8-13.2,15.8-19.6,28.2-19.6c2.6,0,6.4,0,9,1.3c6.4,2.6,11.5,6.4,15.8,14.5   c2.6,6.4,3.8,14.5,2.6,20.9c-4.3,10.2-15.8,19.2-28.2,19.2C114,236.2,110.1,234.9,107.6,233.7z M211.7,250.3   c0-22.2,18.3-41,42.2-41c23.5,0,42.2,18.3,42.2,41s-18.3,41-42.2,41C230.4,291.3,211.7,272.5,211.7,250.3z M376.4,163.3   c-20.9,6.4-34.6,29.4-33.3,50.3l-13.2,3.8l6.4,17.1l13.2-3.8c7.7,14.5,23.5,23.5,41,23.5c5.1,0,10.2-1.3,14.5-2.6   c11.5-3.8,20.9-11.5,28.2-23.5c6.4-11.5,6.4-23.5,2.6-35.8c-6.4-20.1-24.7-33.7-44.8-33.7C386.2,159.4,380.2,160.7,376.4,163.3z    M363.6,215.7c-5.1-14.5,2.6-30.7,18.3-35.8c2.6-1.3,6.4-1.3,9-1.3c11.5,0,23.5,7.7,26.9,19.6c2.6,6.4,2.6,14.5-2.6,20.9   c-2.6,6.4-9,11.5-15.8,14.5c-2.6,1.3-6.4,1.3-9,1.3C378.9,236.2,367.4,226.8,363.6,215.7z M188.2,322.8c-6.4-2.6-11.5-3.8-19.6-3.8   c-15.8,0-29.4,6.4-38.4,19.6c-15.8,20.9-10.2,50.3,10.2,65.7c7.7,6.4,17.1,9,28.2,9c15.8,0,29.4-6.4,38.4-19.6   c13.2-18.3,11.5-43.5-2.6-59.3l7.7-11.5L198,312.2C198,312.2,188.2,322.8,188.2,322.8z M152.4,389c-11.5-9-15.8-26.9-6.4-38.4   c5.1-6.4,14.5-11.5,23.5-11.5c6.4,0,11.5,2.6,15.8,5.1c11.5,9,15.8,26.9,6.4,38.4c-5.1,6.4-14.5,11.5-23.5,11.5   C162.6,394.5,157.5,392,152.4,389z M294.9,322.8l7.7,11.5c-15.4,16.2-15.4,41-2.6,60.2c9,11.5,23.5,19.6,38.4,19.6   c10.2,0,19.6-2.6,28.2-9c20.9-15.8,24.7-44.8,10.2-65.7c-9-11.5-23.5-19.6-38.4-19.6c-6.4,0-13.2,1.3-19.6,3.8l-7.7-10.2   C311.1,313.5,294.9,322.8,294.9,322.8z M315.8,382.6c-9-11.5-6.4-29.4,6.4-38.4c5.1-2.6,10.2-5.1,15.8-5.1c9,0,17.1,3.8,23.5,11.5   c9,11.5,6.4,29.4-6.4,38.4c-5.1,2.6-10.2,5.1-15.8,5.1C329,394.5,319.6,390.7,315.8,382.6z"/>
</g>
</svg>
