<?xml version="1.0" encoding="utf-8"?>
<!-- Generator: Adobe Illustrator 16.0.4, SVG Export Plug-In . SVG Version: 6.00 Build 0)  -->
<!DOCTYPE svg PUBLIC "-//W3C//DTD SVG 1.1//EN" "http://www.w3.org/Graphics/SVG/1.1/DTD/svg11.dtd">
<svg version="1.1" xmlns="http://www.w3.org/2000/svg" xmlns:xlink="http://www.w3.org/1999/xlink" x="0px" y="0px" width="58px"
	 height="52px" viewBox="0 0 58 52" enable-background="new 0 0 58 52" xml:space="preserve">
<g id="Layer_2" display="none">
	<rect x="-197" y="-3" display="inline" fill="#CC0000" width="452" height="58"/>
</g>
<g id="Layer_1">
	<g>
		<path fill-rule="evenodd" clip-rule="evenodd" d="M24.689,3.055c0.66,0.152,7.025,2.079,18.181-2.249
			c0,0-12.954,7.44-24.337,4.234L24.689,3.055z"/>
		<path d="M50.165,35.784c-8.345,7.26-13.312,6.941-13.901,6.945c-0.772,0.007-2.497-0.045-0.633-1.388
			c2.737-1.977,5.009-4.497,6.34-8.464c0.751-2.233,1.436-3.588,2.304-4.698c3.542-4.535,3.579-6.099,3.579-6.099
			c-0.655,0.927-1.829,3.319-4.802,4.499c-1.161,0.498-1.383,0.163-1.878-0.415c-0.628-0.728-2.72-3.29-5.617-3.998
			c-1.228-0.302-2.34-0.469-3.149-0.354c0-3.258,0-5.112,0-5.112c7.589-1.476,13.478,1.414,13.478,1.414
			c-4.932-3.486-8.345-4.45-13.478-5.197V9.431c0,0,3.907,0.085,8.644,1.692c4.629,1.569,8.274,4.737,8.274,4.737l-1.033-9.806
			C43.44,6.409,37.208,7.209,31.957,7.209h-5.875c-5.266,0-11.44-0.8-16.294-1.154L8.754,15.86c0,0,3.344-2.967,7.95-4.6
			c4.363-1.666,8.887-1.83,8.887-1.83v3.493c-10.978,0.901-17.756,9.607-17.756,9.607c8.345-7.257,13.313-6.94,13.902-6.944
			c0.771-0.008,2.495,0.042,0.632,1.388c-2.738,1.975-5.009,4.25-6.341,8.215c-0.75,2.236-1.436,3.835-2.304,4.945
			c-3.542,4.537-3.578,6.101-3.578,6.101c0.655-0.927,1.828-3.319,4.802-4.499c1.162-0.5,1.383-0.162,1.879,0.415
			c0.626,0.728,2.718,3.289,5.614,3.999c1.241,0.304,2.265,0.442,3.149,0.349c0,0-0.003,2.529,0,5.148
			c-7.575,1.459-13.415-1.418-13.415-1.418c4.92,3.478,8.3,4.446,13.415,5.191c0,0.061,0,0.114,0,0.151
			c0,0.884-0.025,1.622-1.062,2.277c-0.746,0.472-5.74,3.345-5.74,3.345s4.487-0.77,10.358-0.77c5.868,0,10.085,0.77,10.085,0.77
			s-5.004-2.867-5.739-3.345c-0.612-0.396-1.085-1.125-1.085-2.287c0-0.033,0-0.093,0-0.174
			C43.371,44.477,50.165,35.784,50.165,35.784z M25.591,33.157c-3.467,0.737-9.66-3.822-4.262-10.654
			c1.662-2.104,2.861-3.111,4.262-3.802V33.157z M36.671,35.814c-1.652,2.091-2.872,3.098-4.263,3.788c0-4.13,0-9.769,0-14.448
			C35.838,24.434,42.058,28.995,36.671,35.814z"/>
	</g>
	<g>
		<g>
			<path fill="#FFFFFF" d="M11.745,33.974c-0.814,0-1.556-0.135-2.203-0.401c-0.643-0.263-1.169-0.666-1.564-1.197
				c-0.393-0.531-0.63-1.116-0.704-1.74c-0.076-0.621-0.115-1.738-0.115-3.32v-2.631c0-1.532,0.037-2.635,0.109-3.279
				c0.071-0.633,0.299-1.22,0.677-1.744c0.375-0.521,0.892-0.929,1.536-1.211c0.642-0.282,1.403-0.424,2.264-0.424
				c0.813,0,1.555,0.135,2.203,0.4c0.645,0.264,1.171,0.667,1.565,1.198c0.394,0.531,0.631,1.116,0.705,1.739
				c0.076,0.621,0.114,1.739,0.114,3.321v2.631c0,1.531-0.037,2.634-0.108,3.278c-0.072,0.633-0.299,1.22-0.677,1.745
				c-0.375,0.521-0.892,0.929-1.536,1.211C13.366,33.831,12.604,33.974,11.745,33.974z M11.764,20.547
				c-0.223,0-0.396,0.087-0.513,0.26c-0.117,0.168-0.174,0.643-0.174,1.453v7.185c0,0.908,0.036,1.452,0.111,1.665
				c0.081,0.23,0.26,0.342,0.547,0.342c0.291,0,0.48-0.131,0.562-0.389c0.077-0.246,0.116-0.829,0.116-1.734v-7.069
				c0-0.715-0.041-1.182-0.122-1.387C12.206,20.657,12.028,20.547,11.764,20.547z"/>
			<path fill="#990000" d="M11.745,18.151c0.798,0,1.523,0.132,2.155,0.391c0.624,0.256,1.132,0.646,1.512,1.157
				c0.38,0.512,0.61,1.077,0.681,1.679c0.076,0.624,0.113,1.736,0.113,3.306v2.631c0,1.532-0.037,2.629-0.107,3.264
				c-0.069,0.612-0.29,1.178-0.655,1.685c-0.363,0.505-0.862,0.897-1.485,1.17c-0.628,0.275-1.373,0.414-2.214,0.414
				c-0.797,0-1.523-0.132-2.156-0.392c-0.625-0.255-1.132-0.646-1.512-1.156c-0.379-0.512-0.608-1.077-0.68-1.68
				c-0.076-0.622-0.114-1.736-0.114-3.305v-2.631c0-1.531,0.037-2.627,0.108-3.265c0.069-0.612,0.289-1.178,0.655-1.685
				c0.363-0.505,0.862-0.897,1.485-1.17C10.16,18.29,10.904,18.151,11.745,18.151 M11.735,31.578c0.347,0,0.583-0.166,0.682-0.476
				c0.082-0.26,0.122-0.839,0.122-1.772v-7.069c0-0.743-0.043-1.212-0.131-1.433c-0.074-0.185-0.245-0.405-0.644-0.405
				c-0.263,0-0.476,0.108-0.617,0.315c-0.091,0.131-0.195,0.425-0.195,1.523v7.185c0,1.224,0.067,1.561,0.118,1.706
				C11.139,31.347,11.308,31.578,11.735,31.578 M11.745,17.901c-0.878,0-1.656,0.146-2.314,0.435
				c-0.665,0.292-1.199,0.713-1.587,1.253c-0.391,0.542-0.626,1.148-0.7,1.803c-0.073,0.647-0.11,1.755-0.11,3.292v2.631
				c0,1.587,0.039,2.709,0.116,3.335c0.077,0.645,0.321,1.25,0.728,1.798C8.286,33,8.831,33.417,9.495,33.688
				c0.663,0.272,1.42,0.411,2.25,0.411c0.876,0,1.655-0.146,2.314-0.435c0.666-0.291,1.2-0.713,1.588-1.253
				c0.39-0.542,0.626-1.148,0.7-1.803c0.072-0.649,0.109-1.756,0.109-3.292v-2.631c0-1.587-0.039-2.709-0.115-3.336
				c-0.076-0.645-0.321-1.25-0.729-1.798c-0.408-0.549-0.952-0.966-1.618-1.239C13.332,18.039,12.575,17.901,11.745,17.901
				L11.745,17.901z M11.735,31.328c-0.303,0-0.391-0.148-0.43-0.259c-0.069-0.195-0.104-0.742-0.104-1.623v-7.185
				c0-0.963,0.082-1.282,0.15-1.38c0.096-0.141,0.23-0.208,0.412-0.208c0.213,0,0.344,0.079,0.412,0.248
				c0.052,0.13,0.113,0.469,0.113,1.341v7.069c0,1.111-0.06,1.536-0.111,1.697C12.113,31.231,11.972,31.328,11.735,31.328
				L11.735,31.328z"/>
		</g>
		<g>
			<path fill="#FFFFFF" d="M22.01,33.658v-5.843c0-0.818-0.263-1.183-0.853-1.183c-0.129,0-0.211,0.01-0.303,0.033v6.993h-3.876
				V18.343h4.26c2.566,0,4.383,0.229,4.383,3.184v1.351c0,1.511-0.522,2.376-1.631,2.675c1.206,0.291,1.773,1.166,1.773,2.706v5.4
				H22.01z M21.014,24.103c0.661,0,0.996-0.313,0.996-0.93v-1.245c0-0.617-0.335-0.93-0.996-0.93h-0.16v3.104H21.014z"/>
			<path fill="#990000" d="M21.238,18.468c2.404,0,4.258,0.148,4.258,3.059v1.351c0,1.646-0.611,2.553-2.2,2.659v0.042
				c1.67,0.105,2.343,0.992,2.343,2.68v5.275h-3.504v-5.718c0-0.718-0.204-1.308-0.978-1.308c-0.183,0-0.285,0.021-0.428,0.063
				v6.963h-3.626V18.468H21.238 M20.729,24.228h0.285c0.509,0,1.121-0.189,1.121-1.055v-1.245c0-0.865-0.611-1.055-1.121-1.055
				h-0.285V24.228 M21.238,18.218h-4.135h-0.25v0.25v15.065v0.25h0.25h3.626h0.25v-0.25v-6.765c0.051-0.007,0.106-0.011,0.178-0.011
				c0.36,0,0.728,0.125,0.728,1.058v5.718v0.25h0.25h3.504h0.25v-0.25v-5.275c0-1.442-0.479-2.326-1.489-2.712
				c0.914-0.396,1.347-1.266,1.347-2.668v-1.351C25.746,18.218,23.351,18.218,21.238,18.218L21.238,18.218z M20.979,21.123h0.035
				c0.78,0,0.871,0.459,0.871,0.805v1.245c0,0.345-0.09,0.805-0.871,0.805h-0.035V21.123L20.979,21.123z"/>
		</g>
		<g>
			<path fill="#FFFFFF" d="M30.996,33.974c-3.086,0-4.586-1.497-4.586-4.577V18.343h3.999v11.624c0,0.919,0.215,1.099,0.588,1.099
				c0.363,0,0.588-0.184,0.588-1.099V18.343h3.999v11.054C35.583,32.477,34.083,33.974,30.996,33.974z"/>
			<path fill="#990000" d="M35.458,18.468v10.929c0,2.532-0.999,4.452-4.462,4.452c-3.463,0-4.461-1.92-4.461-4.452V18.468h3.749
				v11.499c0,0.886,0.204,1.224,0.713,1.224s0.713-0.338,0.713-1.224V18.468H35.458 M35.708,18.218h-0.25h-3.749h-0.25v0.25v11.499
				c0,0.974-0.257,0.974-0.463,0.974c-0.206,0-0.463,0-0.463-0.974V18.468v-0.25h-0.25h-3.749h-0.25v0.25v10.929
				c0,3.164,1.541,4.702,4.711,4.702s4.712-1.538,4.712-4.702V18.468V18.218L35.708,18.218z"/>
		</g>
		<g>
			<polygon fill="#FFFFFF" points="44.989,33.658 44.989,23.849 43.614,33.658 41.032,33.658 39.657,23.849 39.657,33.658 
				36.229,33.658 36.229,18.343 41.457,18.343 42.337,26.267 43.126,18.343 48.417,18.343 48.417,33.658 			"/>
			<path fill="#990000" d="M48.292,18.468v15.065h-3.178V22.35h-0.041l-1.568,11.183h-2.364L39.573,22.35h-0.041v11.183h-3.178
				V18.468h4.991l0.978,8.798h0.041l0.875-8.798H48.292 M48.542,18.218h-0.25h-5.052h-0.227l-0.022,0.225l-0.66,6.631l-0.737-6.634
				l-0.025-0.222h-0.224h-4.991h-0.25v0.25v15.065v0.25h0.25h3.178h0.25v-0.25v-7.892l1.111,7.926l0.03,0.215h0.217h2.364h0.217
				l0.03-0.215l1.111-7.926v7.892v0.25h0.25h3.178h0.25v-0.25V18.468V18.218L48.542,18.218z"/>
		</g>
		<g>
			<path fill="#FFFFFF" d="M53.12,33.974c-3.485,0-4.199-1.619-4.199-4.049v-2.003h3.754v2.551c0,0.75,0.271,0.846,0.506,0.846
				c0.475,0,0.568-0.457,0.568-1.247v-0.633c0-1.161-0.912-1.742-1.967-2.415c-1.351-0.861-2.882-1.837-2.882-4.295v-0.844
				c0-2.597,1.38-3.859,4.22-3.859c2.867,0,4.26,1.124,4.26,3.437v1.539h-3.611v-1.37c0-0.951-0.426-0.951-0.608-0.951
				c-0.236,0-0.506,0.099-0.506,0.867v0.654c0,0.837,0.827,1.353,1.785,1.949c1.419,0.884,3.186,1.985,3.186,4.655v1.182
				C57.625,33.521,55.217,33.974,53.12,33.974z"/>
			<path fill="#990000" d="M53.12,18.151c3.504,0,4.135,1.688,4.135,3.312v1.414h-3.361v-1.245c0-0.95-0.407-1.076-0.733-1.076
				c-0.367,0-0.631,0.232-0.631,0.992v0.654c0,2.195,4.971,2.173,4.971,6.604v1.182c0,3.059-1.772,3.861-4.38,3.861
				c-3.565,0-4.074-1.772-4.074-3.924v-1.878h3.504v2.426c0,0.486,0.102,0.971,0.631,0.971c0.672,0,0.693-0.781,0.693-1.372v-0.633
				c0-2.764-4.849-2.405-4.849-6.709v-0.844C49.025,19.143,50.635,18.151,53.12,18.151 M53.12,17.901
				c-2.883,0-4.345,1.34-4.345,3.984v0.844c0,2.527,1.63,3.565,2.94,4.4c0.352,0.224,0.688,0.438,0.976,0.667H52.55h-3.504h-0.25
				v0.25v1.878c0,2.168,0.524,4.174,4.324,4.174c2.156,0,4.63-0.467,4.63-4.111v-1.182c0-2.739-1.799-3.86-3.245-4.761
				c-0.964-0.601-1.726-1.075-1.726-1.843v-0.654c0-0.742,0.257-0.742,0.381-0.742c0.169,0,0.483,0,0.483,0.826v1.245v0.25h0.25
				h3.361h0.25v-0.25v-1.414C57.505,19.066,56.071,17.901,53.12,17.901L53.12,17.901z M53.181,31.194c-0.133,0-0.381,0-0.381-0.721
				v-2.426v-0.162c0.492,0.415,0.824,0.885,0.824,1.554v0.633C53.624,30.911,53.512,31.194,53.181,31.194L53.181,31.194z"/>
		</g>
		<g>
			<polygon fill="#FFFFFF" points="0.375,33.658 0.375,18.343 7.129,18.343 6.815,21.342 4.297,21.342 4.297,24.227 6.574,24.227 
				6.574,27.225 4.297,27.225 4.297,33.658 			"/>
			<path fill="#990000" d="M6.99,18.468l-0.288,2.749H4.172v3.135h2.277V27.1H4.172v6.433H0.5V18.468H6.99 M7.268,18.218H6.99H0.5
				H0.25v0.25v15.065v0.25H0.5h3.672h0.25v-0.25V27.35h2.027h0.25V27.1v-2.749v-0.25h-0.25H4.422v-2.635h2.281h0.225l0.023-0.224
				l0.288-2.749L7.268,18.218L7.268,18.218z"/>
		</g>
	</g>
</g>
</svg>
