<?xml version="1.0" encoding="UTF-8" standalone="no"?>
<!-- Generator: Adobe Illustrator 18.0.0, SVG Export Plug-In . SVG Version: 6.00 Build 0)  -->

<svg
   xmlns:dc="http://purl.org/dc/elements/1.1/"
   xmlns:cc="http://creativecommons.org/ns#"
   xmlns:rdf="http://www.w3.org/1999/02/22-rdf-syntax-ns#"
   xmlns:svg="http://www.w3.org/2000/svg"
   xmlns="http://www.w3.org/2000/svg"
   xmlns:sodipodi="http://sodipodi.sourceforge.net/DTD/sodipodi-0.dtd"
   xmlns:inkscape="http://www.inkscape.org/namespaces/inkscape"
   version="1.1"
   id="Layer_1"
   x="0px"
   y="0px"
   viewBox="0 0 237.4 237.39999"
   enable-background="new 0 0 237.4 240.3"
   xml:space="preserve"
   inkscape:version="0.91 r13725"
   sodipodi:docname="starbucks-logo.svg"
   width="237.39999"
   height="237.39999"><metadata
     id="metadata17"><rdf:RDF><cc:Work
         rdf:about=""><dc:format>image/svg+xml</dc:format><dc:type
           rdf:resource="http://purl.org/dc/dcmitype/StillImage" /><dc:title></dc:title></cc:Work></rdf:RDF></metadata><defs
     id="defs15" /><sodipodi:namedview
     pagecolor="#d8d8d8"
     bordercolor="#666666"
     borderopacity="1"
     objecttolerance="10"
     gridtolerance="10"
     guidetolerance="10"
     inkscape:pageopacity="0"
     inkscape:pageshadow="2"
     inkscape:window-width="3070"
     inkscape:window-height="1752"
     id="namedview13"
     showgrid="false"
     fit-margin-top="0"
     fit-margin-left="0"
     fit-margin-right="0"
     fit-margin-bottom="0"
     inkscape:zoom="3.9284228"
     inkscape:cx="33.624205"
     inkscape:cy="58.928281"
     inkscape:window-x="130"
     inkscape:window-y="48"
     inkscape:window-maximized="1"
     inkscape:current-layer="Layer_1" /><g
     id="g4149"
     transform="translate(-111.08602,69.748094)"><path
       d="m 348.48602,48.951906 c 0,65.599994 -53.2,118.699994 -118.7,118.699994 -65.6,0 -118.7,-53.2 -118.7,-118.699994 0,-65.6 53.2,-118.7 118.7,-118.7 65.5,0 118.7,53.1 118.7,118.7"
       id="path5"
       inkscape:connector-curvature="0"
       style="fill:#ffffff" /><path
       d="m 241.58602,-18.448094 c -1,-0.2 -6,-1 -11.9,-1 -5.9,0 -10.9,0.8 -11.9,1 -0.6,0.1 -0.8,-0.5 -0.4,-0.8 0.4,-0.3 12.3,-9.4 12.3,-9.4 0,0 11.9,9.1 12.3,9.4 0.4,0.3 0.2,0.9 -0.4,0.8 m -20.6,58.8 c 0,0 -0.6,0.2 -0.8,0.8 2.5,1.9 4.2,6.3 9.4,6.3 5.2,0 6.9,-4.4 9.4,-6.3 -0.2,-0.6 -0.8,-0.8 -0.8,-0.8 0,0 -3.3,0.8 -8.6,0.8 -5.3,0 -8.6,-0.8 -8.6,-0.8 m 8.6,-7.3 c -1.4,0 -1.8,-0.5 -2.7,-0.5 -0.9,0 -2.8,0.8 -3.2,1.4 0,0.3 0.2,0.6 0.4,0.9 2.1,0.3 3.1,1.5 5.5,1.5 2.4,0 3.4,-1.2 5.5,-1.5 0.3,-0.3 0.4,-0.6 0.4,-0.9 -0.4,-0.7 -2.2,-1.4 -3.2,-1.4 -0.9,-0.1 -1.2,0.5 -2.7,0.5 m 118.6,22.4 c -0.2,2.8 -0.4,5.7 -0.7,8.4 -13.4,2.2 -18.2,-9.7 -32,-9.2 0.8,2.9 1.5,5.9 2,8.9 11.4,0 15.9,10.6 28.6,9 -0.7,3.2 -1.5,6.4 -2.4,9.6 -10,1 -13.5,-8.9 -25.1,-8.7 0.1,1.7 0.1,3.3 0.1,5 0,0.9 0,1.9 -0.1,2.8 9.9,-0.1 13.1,9 22.5,8.6 -1.2,3.2 -2.5,6.3 -3.9,9.399999 -6.8,-0.4 -9.1,-8.999999 -19.3,-8.299999 -0.3,2.2 -0.7,4.4 -1.2,6.6 8.9,-0.6 10.8,7.599994 17.2,8.199994 -1.6,3 -3.4,5.9 -5.2,8.7 -3.8,-2 -7.1,-8.1 -14.2,-8.5 0.7,-2.3 1.4,-4.6 1.9,-6.899995 -6.4,0 -13.6,-2.499999 -19.7,-7.999999 2,-11.3 -15.5,-22.7 -15.5,-31 0,-8.9 4.5,-13.9 4.5,-26 0,-9 -4.4,-18.7 -10.9,-25.3000004 -1.3,-1.2999997 -2.6,-2.2999997 -4.1,-3.2999997 6,7.5000001 10.7,16.3000001 10.7,26.6000001 0,11.4 -5.3,17.4 -5.3,27.9 0,10.5 15.4,19.6 15.4,30.4 0,4.3 -1.4,8.399999 -5.8,16.599994 6.9,6.9 15.9,10.6 21.7,10.6 1.9,0 2.9,-0.6 3.6,-2 0.6,-1.3 1.1,-2.6 1.6,-3.9 6.2,0.2 9.1,5.9 12.5,8.2 -1.9,2.5 -3.9,5 -6,7.4 -2.3,-2.6 -5.4,-6.9 -10,-8.1 -0.8,1.6 -1.7,3.1 -2.6,4.7 3.9,1.1 6.6,5 8.7,7.6 -2.2,2.3 -4.6,4.5 -7,6.7 -1.5,-2.3 -3.9,-5.3 -6.5,-7 -1,1.3 -2,2.6 -3,3.9 2.3,1.5 4.2,4.3 5.5,6.5 -2.8,2.3 -5.7,4.4 -8.7,6.4 -1.5,-12.1 -17.9,-20.3 -13.5,-34.3 -1.5,2.5 -3.2,5.6 -3.2,9.3 0,10.1 10.8,18.2 11.6,28.2 -2.2,1.3 -4.5,2.6 -6.9,3.8 -0.4,-11.1 -11.8,-23.2 -11.8,-32.2 0,-10.1 13.3,-20.3 13.3,-32.299994 0,-12 -15.3,-20.3 -15.3,-30.8 0,-10.5 6.5,-16.5 6.5,-30 0,-9.9 -4.7,-19.8000004 -11.9,-26.2000001 -1.3,-1.1 -2.5,-2 -4.1,-2.80000004 6.8,8.19999974 10.8,15.60000014 10.8,26.90000014 0,12.7 -7.5,19.7 -7.5,32.1 0,12.4 15,19.3 15,30.8 0,11.499994 -14,21.299994 -14,33.199994 0,10.8 12.3,21.6 12.5,34.4 -2.7,1.2 -5.4,2.3 -8.2,3.2 1.6,-12.9 -12.3,-26.3 -12.3,-36.9 0,-11.5 14.5,-21.5 14.5,-33.899994 0,-12.4 -14.7,-18.2 -14.7,-31 0,-12.8 9.1,-19.9 9.1,-34 0,-11 -5.4,-20.9000001 -13.4,-27.0000002 -0.2,-0.1 -0.3,-0.3 -0.5,-0.4 -0.7,-0.5999999 -1.4,0.1 -0.8,0.8 5.6,7.0000001 8.6,14.1000002 8.6,24.6000002 0,12.9 -10.4,23.4 -10.4,35.9 0,14.8 14,19 14,31.1 0,12.099994 -15,21.799994 -15,34.699994 0,11.9 14.2,25.2 11.7,38.9 -2.8,0.7 -5.7,1.4 -8.6,1.9 2.7,-17.1 -11.2,-29.5 -11.2,-40.7 0,-12.1 15.5,-23 15.5,-34.799994 0,-11.2 -11.1,-14.8 -12.6,-26.3 -0.2,-1.6 -1.5,-2.7 -3.2,-2.4 -2.3,0.4 -5.2,1.9 -9.7,1.9 -4.6,0 -7.4,-1.5 -9.7,-1.9 -1.7,-0.3 -3,0.9 -3.2,2.4 -1.5,11.5 -12.6,15.1 -12.6,26.3 0,11.899994 15.5,22.699994 15.5,34.799994 0,11.2 -13.9,23.5 -11.2,40.7 -2.9,-0.5 -5.8,-1.2 -8.6,-1.9 -2.4,-13.8 11.7,-27 11.7,-38.9 0,-12.9 -15,-22.6 -15,-34.699994 0,-12.1 14,-16.3 14,-31.1 0,-12.5 -10.4,-23 -10.4,-35.9 0,-10.5 3,-17.6000001 8.6,-24.6000002 0.5,-0.7 -0.1,-1.2999999 -0.8,-0.8 -0.2,0.1 -0.3,0.3 -0.5,0.4 -7.9,6.1000001 -13.4,16.0000002 -13.4,27.0000002 0,14.1 9.1,21.2 9.1,34 0,12.8 -14.7,18.6 -14.7,31 0,12.399994 14.5,22.399994 14.5,33.899994 0,10.6 -13.9,23.9 -12.3,36.9 -2.8,-1 -5.5,-2 -8.2,-3.2 0.2,-12.8 12.5,-23.6 12.5,-34.4 0,-11.9 -14,-21.6 -14,-33.199994 0,-11.6 15,-18.4 15,-30.8 0,-12.4 -7.5,-19.4 -7.5,-32.1 0,-11.3 4,-18.7000004 10.8,-26.90000014 -1.5,0.80000004 -2.8,1.70000004 -4.1,2.80000004 -7.2,6.3999997 -11.9,16.4000001 -11.9,26.2000001 0,13.5 6.5,19.5 6.5,30 0,10.5 -15.3,18.8 -15.3,30.8 0,11.999994 13.3,22.099994 13.3,32.299994 0,9.1 -11.4,21.2 -11.8,32.2 -2.3,-1.2 -4.6,-2.4 -6.9,-3.8 0.9,-10.1 11.7,-18.1 11.7,-28.2 0,-3.7 -1.7,-6.8 -3.2,-9.3 4.4,14 -12,22.3 -13.5,34.3 -3,-2 -5.9,-4.1 -8.7,-6.4 1.3,-2.2 3.3,-5 5.5,-6.5 -1,-1.3 -2.1,-2.5 -3,-3.9 -2.7,1.6 -5,4.6 -6.5,7 -2.4,-2.1 -4.8,-4.4 -7,-6.7 2.1,-2.6 4.8,-6.6 8.7,-7.6 -0.9,-1.5 -1.8,-3.1 -2.6,-4.7 -4.6,1.2 -7.7,5.5 -10,8.1 -2.1,-2.4 -4.1,-4.8 -6,-7.4 3.5,-2.3 6.3,-7.9 12.6,-8.2 0.5,1.3 1.1,2.6 1.6,3.9 0.7,1.5 1.7,2 3.6,2 5.8,0 14.8,-3.8 21.7,-10.6 -4.5,-8.199995 -5.8,-12.299994 -5.8,-16.599994 0,-10.8 15.4,-19.9 15.4,-30.4 0,-10.5 -5.3,-16.5 -5.3,-27.9 0,-10.3 4.6,-19.1 10.7,-26.6000001 -1.5,0.9 -2.8,2 -4.1,3.2999997 -6.6,6.6000004 -10.9,16.4000004 -10.9,25.3000004 0,12.1 4.5,17 4.5,26 0,8.3 -17.5,19.7 -15.5,31 -6.1,5.6 -13.4,7.999999 -19.8,7.999999 0.6,2.299995 1.2,4.599995 1.9,6.899995 -7.2,0.4 -10.5,6.5 -14.2,8.5 -1.9,-2.8 -3.6,-5.7 -5.2,-8.7 6.4,-0.7 8.3,-8.899994 17.2,-8.199994 -0.5,-2.2 -0.9,-4.4 -1.2,-6.6 -10.3,-0.7 -12.6,7.999999 -19.3,8.299999 -1.4,-3.099999 -2.7,-6.199999 -3.9,-9.399999 9.4,0.4 12.6,-8.7 22.4,-8.6 0,-0.9 0,-1.8 0,-2.8 0,-1.7 0.1,-3.3 0.1,-5 -11.6,-0.3 -15.1,9.7 -25.1,8.7 -0.9,-3.1 -1.7,-6.3 -2.4,-9.6 12.6,1.6 17.2,-9.1 28.6,-9 0.5,-3 1.2,-6 2,-8.9 -13.8,-0.6 -18.6,11.4 -32,9.2 -0.4,-2.8 -0.6,-5.6 -0.8,-8.4 15.6,1.7 21.5,-11.1 35.7,-9.5 1.3,-3.4 2.9,-6.7 4.7,-9.9 -17.8,-3.1 -23.9,11.8 -40.5,9.5 1.4,-64 53.9,-115.3 118.3,-115.3 64.5,0 116.9,51.3 118.7,115.4 -16.6,2.3 -22.7,-12.6 -40.5,-9.5 1.8,3.2 3.3,6.5 4.7,9.9 14.2,-1.7 20,11.2 35.7,9.4 m -169.6,-49.8000001 c -8.7,-3.6 -19.3,-2.7 -28.4,3.0999997 -1.4,-8.39999974 -6,-15.8999997 -12.5,-20.3999996 -0.9,-0.6 -1.8,0 -1.8,1 1.4,17.7999999 -9,33.2 -21.8,46.8 13.2,4 24.4,-13 41.4,-7.1 6.3,-9.1 14.1,-17.1 23.1,-23.4000001 m 51,-10.7 c -11,0 -20.3,6.2 -22.7,14.2999997 -0.2,0.6 0.1,1.0000004 0.8,0.7 2,-0.9 4.2,-1.2999997 6.7,-1.2999997 4.5,0 8.5,1.7000001 10.8,4.5000001 1,3.4 1.1,8.4 -0.1,11.2 -1.8,-0.4 -2.5,-1.8 -4.3,-1.8 -1.8,0 -3.2,1.3 -6.3,1.3 -3.1,0 -3.4,-1.5 -5.4,-1.5 -2.4,0 -2.8,2.4 -2.8,5.2 0,12.3 11.3,29.2 23.3,29.2 12,0 23.3,-16.9 23.3,-29.2 0,-2.8 -0.6,-5.1 -3,-5.4 -1.2,0.9 -2.4,1.7 -5.2,1.7 -3.1,0 -3.9,-1.3 -5.7,-1.3 -2.2,0 -2,4.6 -4.6,4.9 -1.7,-4.1 -1.8,-9.5 -0.4,-14.2 2.3,-2.9 6.3,-4.5000004 10.8,-4.5000004 2.4,0 4.7,0.4 6.7,1.3000004 0.7,0.3 1,-0.1000004 0.8,-0.7000004 -2.4,-8.1999997 -11.7,-14.3999997 -22.7,-14.3999997 m 17.6,17.6000001 c -2.7,0 -5.7,0.8 -7.7,3 -0.2,0.6 -0.2,1.5 0.1,2 4.8,-1.6 9,-1.7 11.1,0.6 1.1,-1 1.4,-1.9 1.4,-2.9 0,-1.6 -1.7,-2.7 -4.9,-2.7 m -38.6,5.6 c 2.3,-2.3 7.2,-2.2 12.2,-0.4 0.2,-2.5 -4.3,-5.3 -8.8,-5.3 -3.3,0 -4.9,1.1 -4.9,2.7 0.1,1.1 0.4,2 1.5,3 m 76,-41.6 c -8.7,0.6 -16.3,3.6 -22.4,8.6 2.6,-7.4 5.9,-13.8 10.1,-20 -11.1,1.2 -20.3,5.2 -27.1,12.2 l -5.3,-13.9 11.7,-10.4 -15.7,-1.1 -6.3,-14.6 -6.3,14.6 -15.7,1.1 11.7,10.4 -5.3,13.9 c -6.8,-6.9 -16,-11 -27.1,-12.2 4.2,6.2 7.5,12.7 10.1,20 -6.1,-5 -13.7,-8 -22.4,-8.6 5.2,6.7 9.8,13.8999999 13.3,21.5999998 0.4,0.90000002 1.2,1.20000002 2.1,0.7 11.9,-5.8999999 25.3,-9.2999998 39.6,-9.2999998 14.2,0 27.6,3.2999999 39.6,9.2999998 0.9,0.50000002 1.7,0.20000002 2.1,-0.7 3.4,-7.6999999 8.1,-14.8999998 13.3,-21.5999998 m 19,52.5 c 17.1,-5.9 28.3,11 41.5,7.1 -12.8,-13.6 -23.2,-29.0000001 -21.8,-46.8 0.1,-1 -0.9,-1.6 -1.7,-1 -6.5,4.4999999 -11.1,11.99999986 -12.5,20.3999996 -9,-5.7999997 -19.6,-6.5999997 -28.4,-3.0999997 9,6.3000001 16.7,14.3000001 22.9,23.4000001"
       id="path7"
       inkscape:connector-curvature="0"
       style="fill:#00643c" /></g></svg>